<?xml version="1.0" encoding="UTF-8"?> <svg xmlns="http://www.w3.org/2000/svg" width="32" height="35" viewBox="0 0 32 35" fill="none"><g opacity="0.5"><path d="M24.6207 24.6429C22.8103 26.0714 20.2759 27.1429 17.7414 27.1429C11.9483 27.1429 7.96552 22.8571 7.96552 17.1429C7.96552 11.4286 11.9483 7.5 17.7414 7.5C20.2759 7.5 22.8103 8.21428 24.6207 9.99999L25.7069 11.0714L31.5 5.71428L30.0517 4.64285C26.7931 1.78571 22.4483 0 17.7414 0C7.60346 0 0 7.5 0 17.5C0 27.5 7.60346 35 17.7414 35C22.4483 35 26.7931 33.2143 30.0517 30.3571L31.5 29.2857L25.7069 23.5714L24.6207 24.6429Z" fill="white"></path><path opacity="0.4" d="M17.379 23.2128C20.5785 23.2128 23.1722 20.6544 23.1722 17.4985C23.1722 14.3426 20.5785 11.7842 17.379 11.7842C14.1796 11.7842 11.5859 14.3426 11.5859 17.4985C11.5859 20.6544 14.1796 23.2128 17.379 23.2128Z" fill="white"></path></g></svg> 