<?xml version="1.0" encoding="UTF-8"?> <svg xmlns="http://www.w3.org/2000/svg" width="320" height="320" viewBox="0 0 320 320" fill="none"><rect width="320" height="320" fill="#090909"></rect><rect width="320" height="320" fill="white" fill-opacity="0.05"></rect><g clip-path="url(#clip0_16856_12586)"><rect x="66" y="105.2" width="79.36" height="140.8" rx="7.68" fill="white" fill-opacity="0.1"></rect><circle cx="78.8004" cy="119.68" r="6.4" fill="white" fill-opacity="0.6"></circle><rect x="89.0391" y="116.16" width="34.56" height="2.56" rx="1.28" fill="white" fill-opacity="0.2"></rect><rect x="89.0391" y="120.64" width="20.48" height="2.56" rx="1.28" fill="white" fill-opacity="0.2"></rect><rect x="72.4004" y="133.76" width="53.76" height="37.76" rx="5.12" fill="white" fill-opacity="0.05"></rect><rect x="131.281" y="133.76" width="40.96" height="37.76" rx="5.12" fill="white" fill-opacity="0.05"></rect><rect x="72.4004" y="179.2" width="66.56" height="23.04" rx="5.12" fill="white" fill-opacity="0.05"></rect><rect x="72.4004" y="207.36" width="66.56" height="23.04" rx="5.12" fill="white" fill-opacity="0.05"></rect><rect x="72.4004" y="235.52" width="66.56" height="23.04" rx="5.12" fill="white" fill-opacity="0.05"></rect></g><path d="M183.76 99.2L178.96 96.4287V101.971L183.76 99.2ZM143.92 176H144.4C144.4 175.465 144.825 175.04 145.36 175.04V174.56V174.08C144.295 174.08 143.44 174.935 143.44 176H143.92ZM145.36 174.56V175.04C145.895 175.04 146.32 175.465 146.32 176H146.8H147.28C147.28 174.935 146.425 174.08 145.36 174.08V174.56ZM146.8 176H146.32C146.32 176.535 145.895 176.96 145.36 176.96V177.44V177.92C146.425 177.92 147.28 177.065 147.28 176H146.8ZM145.36 177.44V176.96C144.825 176.96 144.4 176.535 144.4 176H143.92H143.44C143.44 177.065 144.295 177.92 145.36 177.92V177.44ZM146.8 176V176.48H158.16V176V175.52H146.8V176ZM164.56 169.6H165.04V105.6H164.56H164.08V169.6H164.56ZM170.96 99.2V99.68H179.44V99.2V98.72H170.96V99.2ZM164.56 105.6H165.04C165.04 102.33 167.69 99.68 170.96 99.68V99.2V98.72C167.16 98.72 164.08 101.8 164.08 105.6H164.56ZM158.16 176V176.48C161.96 176.48 165.04 173.4 165.04 169.6H164.56H164.08C164.08 172.869 161.429 175.52 158.16 175.52V176Z" fill="#FED500"></path><rect x="187" y="67" width="64" height="64" rx="32" fill="#346DA6"></rect><g clip-path="url(#clip1_16856_12586)"><path d="M219 121C231.15 121 241 111.15 241 99C241 86.8497 231.15 77 219 77C206.85 77 197 86.8497 197 99C197 111.15 206.85 121 219 121Z" fill="#346DA6"></path><path d="M207.004 92.4429C209.246 88.2062 213.801 85.4819 219 85.4819C222.361 85.4819 225.48 86.9257 227.878 88.9194C227.242 88.7562 226.434 88.9194 225.721 89.4007C223.959 90.3632 223.4 93.2421 225.643 94.6772C227.087 95.5538 227.56 97.7968 227.482 99.0772C227.405 100.435 224.2 106.597 224.2 106.597L221.08 95.7944C221.08 95.7944 221.003 95.0726 221.003 94.8319C221.003 94.5913 221.08 94.196 221.243 94.0327C221.321 93.8694 221.561 93.6288 221.725 93.6288H223.246V92.4257H215.082V93.6288H215.322C215.563 93.6288 215.881 93.9468 216.121 94.2647C216.439 94.5827 216.757 95.7085 217.239 96.903L218.442 100.822L215.881 106.666L213.079 94.9093C213.079 94.9093 213.157 94.1101 213.32 93.9468C213.397 93.8694 213.561 93.6288 213.801 93.6288H213.879V92.4257L207.004 92.4429ZM208.602 94.4366C208.602 94.4366 207.966 93.6374 207.244 93.6374H206.522C205.8 95.1585 205.482 97.1608 205.482 98.9999C205.482 104.517 208.92 109.321 213.801 111.323L208.602 94.4366ZM230.679 92.2796C230.92 93.4827 230.92 95.0038 230.361 96.6022C229.081 100.839 225.798 108.444 224.518 111.323C229.236 109.244 232.518 104.526 232.518 99.0858C232.604 96.6022 231.882 94.2819 230.679 92.2796ZM219.318 103.718L215.795 112.2C216.835 112.441 217.875 112.604 218.992 112.604C220.109 112.604 221.235 112.441 222.275 112.2L219.318 103.718Z" fill="white"></path></g><defs><clipPath id="clip0_16856_12586"><rect x="66" y="105.6" width="79.36" height="140.8" rx="7.68" fill="white"></rect></clipPath><clipPath id="clip1_16856_12586"><rect width="44" height="44" fill="white" transform="translate(197 77)"></rect></clipPath></defs></svg> 