<?xml version="1.0" encoding="UTF-8"?> <svg xmlns="http://www.w3.org/2000/svg" width="320" height="320" viewBox="0 0 320 320" fill="none"><rect width="320" height="320" fill="#090909"></rect><rect width="320" height="320" fill="white" fill-opacity="0.05"></rect><g clip-path="url(#clip0_16856_12586)"><rect x="66" y="105.2" width="79.36" height="140.8" rx="7.68" fill="white" fill-opacity="0.1"></rect><circle cx="78.8004" cy="119.68" r="6.4" fill="white" fill-opacity="0.6"></circle><rect x="89.0391" y="116.16" width="34.56" height="2.56" rx="1.28" fill="white" fill-opacity="0.2"></rect><rect x="89.0391" y="120.64" width="20.48" height="2.56" rx="1.28" fill="white" fill-opacity="0.2"></rect><rect x="72.4004" y="133.76" width="53.76" height="37.76" rx="5.12" fill="white" fill-opacity="0.05"></rect><rect x="131.281" y="133.76" width="40.96" height="37.76" rx="5.12" fill="white" fill-opacity="0.05"></rect><rect x="72.4004" y="179.2" width="66.56" height="23.04" rx="5.12" fill="white" fill-opacity="0.05"></rect><rect x="72.4004" y="207.36" width="66.56" height="23.04" rx="5.12" fill="white" fill-opacity="0.05"></rect><rect x="72.4004" y="235.52" width="66.56" height="23.04" rx="5.12" fill="white" fill-opacity="0.05"></rect></g><path d="M183.76 99.2L178.96 96.4287V101.971L183.76 99.2ZM143.92 176H144.4C144.4 175.465 144.825 175.04 145.36 175.04V174.56V174.08C144.295 174.08 143.44 174.935 143.44 176H143.92ZM145.36 174.56V175.04C145.895 175.04 146.32 175.465 146.32 176H146.8H147.28C147.28 174.935 146.425 174.08 145.36 174.08V174.56ZM146.8 176H146.32C146.32 176.535 145.895 176.96 145.36 176.96V177.44V177.92C146.425 177.92 147.28 177.065 147.28 176H146.8ZM145.36 177.44V176.96C144.825 176.96 144.4 176.535 144.4 176H143.92H143.44C143.44 177.065 144.295 177.92 145.36 177.92V177.44ZM146.8 176V176.48H158.16V176V175.52H146.8V176ZM164.56 169.6H165.04V105.6H164.56H164.08V169.6H164.56ZM170.96 99.2V99.68H179.44V99.2V98.72H170.96V99.2ZM164.56 105.6H165.04C165.04 102.33 167.69 99.68 170.96 99.68V99.2V98.72C167.16 98.72 164.08 101.8 164.08 105.6H164.56ZM158.16 176V176.48C161.96 176.48 165.04 173.4 165.04 169.6H164.56H164.08C164.08 172.869 161.429 175.52 158.16 175.52V176Z" fill="#FED500"></path><rect x="189.561" y="73" width="64" height="64" rx="32" fill="#146EF6"></rect><path d="M228.227 102.333C228.227 102.333 226.393 107.141 226.227 107.667C226.166 107.133 224.227 97 224.227 97C220.725 97 219.206 99.0827 218.227 101.667C218.227 101.667 215.77 107.791 215.561 108.333C215.543 107.843 214.894 102.333 214.894 102.333C214.694 99.172 211.946 97.0267 209.561 97.0267L212.227 114.333C215.887 114.316 218.521 112.251 219.561 109.667C219.561 109.667 221.481 103.933 221.561 103.667C221.578 103.907 222.894 114.333 222.894 114.333C226.571 114.333 229.153 112.165 230.227 109.667L234.894 97C231.251 97 229.223 99.74 228.227 102.333Z" stroke="white" stroke-width="1.7" stroke-linecap="round" stroke-linejoin="round"></path><defs><clipPath id="clip0_16856_12586"><rect x="66" y="105.6" width="79.36" height="140.8" rx="7.68" fill="white"></rect></clipPath></defs></svg> 