<?xml version="1.0" encoding="UTF-8"?> <svg xmlns="http://www.w3.org/2000/svg" width="32" height="32" viewBox="0 0 32 32" fill="none"><path d="M13.0959 18.633H9.07722C7.15767 18.633 5.60156 17.0949 5.60156 15.1976C5.60156 13.3004 7.15767 11.7623 9.07722 11.7623H9.95921C9.95921 9.79874 11.5696 8.20697 13.5562 8.20697H14.4011L14.7329 7.83262C15.5844 6.87225 16.7909 6.29088 18.0808 6.2195C20.838 6.06691 23.1584 8.23565 23.1584 10.9651V11.566C24.9489 11.566 26.4004 13.0006 26.4004 14.7703V15.6576C26.4004 17.3009 25.0526 18.633 23.39 18.633H19.9271M13.0959 18.633V23.2846C13.0959 23.5224 12.9009 23.7151 12.6603 23.7151H9.95921M13.0959 18.633H16.4641M16.4641 18.633V25.7873M16.4641 18.633H19.9271M19.9271 18.633V23.2846C19.9271 23.5224 20.1221 23.7151 20.3626 23.7151H23.1584" stroke="#FED500" stroke-width="1.22564" stroke-linecap="round" stroke-linejoin="round"></path></svg> 