<?xml version="1.0" encoding="UTF-8"?> <svg xmlns="http://www.w3.org/2000/svg" width="26" height="23" viewBox="0 0 26 23" fill="none"><path d="M12.5824 6.49563H13.4958L17.7118 15.3529L15.7209 19.7419M12.5824 6.49563V13.1944M12.5824 6.49563H11.6689L7.45294 15.3529L9.44381 19.7419M15.7209 19.7419L16.7515 22.5H8.41324L9.44381 19.7419M15.7209 19.7419H9.44381M12.5824 13.1944C13.6172 13.1944 14.4561 14.0534 14.4561 15.1131C14.4561 16.1727 13.6172 17.0317 12.5824 17.0317C11.5475 17.0317 10.7086 16.1727 10.7086 15.1131C10.7086 14.0534 11.5475 13.1944 12.5824 13.1944ZM1.87178 12.0764C2.40283 7.17324 6.08426 3.24454 10.7941 2.46584H2.59412M23.1491 12.0524C22.6141 7.20949 19.005 3.32197 14.3706 2.49018H21.5471M0.582353 12.0764H3.02941V14.5742H0.582353V12.0764ZM22.1353 12.0764H24.5824V14.5742H22.1353V12.0764ZM14.3706 2.32533C14.3706 3.33343 13.57 4.15066 12.5824 4.15066C11.5947 4.15066 10.7941 3.33343 10.7941 2.32533C10.7941 1.31723 11.5947 0.5 12.5824 0.5C13.57 0.5 14.3706 1.31723 14.3706 2.32533ZM2.61765 2.44541C2.61765 3.04232 2.1436 3.5262 1.55882 3.5262C0.974051 3.5262 0.5 3.04232 0.5 2.44541C0.5 1.84851 0.974051 1.36463 1.55882 1.36463C2.1436 1.36463 2.61765 1.84851 2.61765 2.44541ZM23.6647 2.44541C23.6647 3.04232 23.1907 3.5262 22.6059 3.5262C22.0211 3.5262 21.5471 3.04232 21.5471 2.44541C21.5471 1.84851 22.0211 1.36463 22.6059 1.36463C23.1907 1.36463 23.6647 1.84851 23.6647 2.44541Z" stroke="white"></path></svg> 