<?xml version="1.0" encoding="UTF-8"?> <svg xmlns="http://www.w3.org/2000/svg" width="32" height="32" viewBox="0 0 32 32" fill="none"><g clip-path="url(#clip0_16871_12565)"><path d="M1.81226 8.21293C4.45864 3.2142 9.83253 0 15.9669 0C19.9314 0 23.612 1.70342 26.4409 4.05577C25.6906 3.86312 24.7375 4.05577 23.8959 4.62358C21.8173 5.75919 21.1583 9.15589 23.8047 10.8492C25.5081 11.8834 26.0657 14.5298 25.9745 16.0406C25.8832 17.6426 22.1012 24.9125 22.1012 24.9125L18.4206 12.1673C18.4206 12.1673 18.3294 11.3156 18.3294 11.0317C18.3294 10.7478 18.4206 10.2814 18.6133 10.0887C18.7045 9.89607 18.9884 9.61217 19.1811 9.61217H20.9758V8.19265H11.3433V9.61217H11.6272C11.9111 9.61217 12.2863 9.98733 12.5702 10.3625C12.9453 10.7376 13.3205 12.0659 13.8883 13.4753L15.3078 18.0989L12.2863 24.9937L8.98082 11.1229C8.98082 11.1229 9.07208 10.18 9.26473 9.98733C9.35598 9.89607 9.54863 9.61217 9.83253 9.61217H9.92379V8.19265L1.81226 8.21293ZM3.69819 10.5653C3.69819 10.5653 2.94787 9.62231 2.09616 9.62231H1.24445C0.392737 11.417 0.0175781 13.7795 0.0175781 15.9493C0.0175781 22.4588 4.07335 28.1267 9.83253 30.4892L3.69819 10.5653ZM29.7464 8.02028C30.0303 9.4398 30.0303 11.2345 29.3712 13.1204C27.8604 18.1191 23.9872 27.0925 22.4764 30.4892C28.0429 28.0355 31.9162 22.4689 31.9162 16.0507C32.0176 13.1204 31.1659 10.3828 29.7464 8.02028ZM16.342 21.5158L12.1849 31.5235C13.4117 31.8074 14.6386 32 15.9567 32C17.2749 32 18.6031 31.8074 19.83 31.5235L16.342 21.5158Z" fill="#FED500"></path></g><defs><clipPath id="clip0_16871_12565"><rect width="32" height="32" fill="white"></rect></clipPath></defs></svg> 