<?xml version="1.0" encoding="UTF-8"?> <svg xmlns="http://www.w3.org/2000/svg" width="32" height="32" viewBox="0 0 32 32" fill="none"><path d="M26.0002 9.33335C24.9017 7.68934 23.414 6.34222 21.6694 5.41176C19.9248 4.48131 17.9774 3.99636 16.0002 4.00002C14.0264 3.99881 12.0828 4.48499 10.342 5.41538C8.60126 6.34577 7.11716 7.69159 6.02148 9.33335" stroke="#FED500" stroke-width="1.7" stroke-linecap="round" stroke-linejoin="round"></path><path d="M15.3331 4C14.2939 5.66481 13.4755 7.4576 12.8984 9.33333" stroke="#FED500" stroke-width="1.7" stroke-linecap="round" stroke-linejoin="round"></path><path d="M16.666 4C17.7061 5.66467 18.5254 7.45746 19.1033 9.33333" stroke="#FED500" stroke-width="1.7" stroke-linecap="round" stroke-linejoin="round"></path><path d="M26.0002 22.666C24.9017 24.31 23.414 25.6572 21.6694 26.5876C19.9248 27.5181 17.9774 28.003 16.0002 27.9993C14.0264 28.0006 12.0828 27.5144 10.342 26.584C8.60126 25.6536 7.11716 24.3078 6.02148 22.666" stroke="#FED500" stroke-width="1.7" stroke-linecap="round" stroke-linejoin="round"></path><path d="M15.3331 27.9993C14.2939 26.3345 13.4755 24.5418 12.8984 22.666" stroke="#FED500" stroke-width="1.7" stroke-linecap="round" stroke-linejoin="round"></path><path d="M16.666 27.9993C17.7061 26.3347 18.5254 24.5419 19.1033 22.666" stroke="#FED500" stroke-width="1.7" stroke-linecap="round" stroke-linejoin="round"></path><path d="M2.66602 13.334L3.99935 18.6673L5.99935 13.334L7.99935 18.6673L9.33268 13.334" stroke="#FED500" stroke-width="1.7" stroke-linecap="round" stroke-linejoin="round"></path><path d="M22.666 13.334L23.9993 18.6673L25.9993 13.334L27.9993 18.6673L29.3327 13.334" stroke="#FED500" stroke-width="1.7" stroke-linecap="round" stroke-linejoin="round"></path><path d="M12.666 13.334L13.9993 18.6673L15.9993 13.334L17.9993 18.6673L19.3327 13.334" stroke="#FED500" stroke-width="1.7" stroke-linecap="round" stroke-linejoin="round"></path></svg> 