<?xml version="1.0" encoding="UTF-8"?> <svg xmlns="http://www.w3.org/2000/svg" width="32" height="32" viewBox="0 0 32 32" fill="none"><path d="M4 27.9999V22.6666C4 21.6118 4.31279 20.5806 4.89883 19.7035C5.48486 18.8265 6.31782 18.1429 7.29236 17.7392C8.26689 17.3356 9.33925 17.2299 10.3738 17.4357C11.4084 17.6415 12.3587 18.1495 13.1046 18.8954C13.8504 19.6412 14.3584 20.5915 14.5642 21.6261C14.77 22.6607 14.6644 23.733 14.2607 24.7076C13.857 25.6821 13.1734 26.5151 12.2964 27.1011C11.4193 27.6871 10.3882 27.9999 9.33333 27.9999H4Z" stroke="#FED500" stroke-width="1.7" stroke-linecap="round" stroke-linejoin="round"></path><path d="M28.0003 4C24.1947 4.52053 20.6002 6.05886 17.5963 8.45259C14.5924 10.8463 12.2905 14.0067 10.9336 17.6" stroke="#FED500" stroke-width="1.7" stroke-linecap="round" stroke-linejoin="round"></path><path d="M28.0023 4C27.4818 7.80558 25.9435 11.4 23.5498 14.4039C21.156 17.4078 17.9957 19.7097 14.4023 21.0667" stroke="#FED500" stroke-width="1.7" stroke-linecap="round" stroke-linejoin="round"></path><path d="M14.1367 12C16.7276 13.1958 18.8076 15.2758 20.0034 17.8667" stroke="#FED500" stroke-width="1.7" stroke-linecap="round" stroke-linejoin="round"></path></svg> 