<?xml version="1.0" encoding="UTF-8"?> <svg xmlns="http://www.w3.org/2000/svg" width="28" height="28" viewBox="0 0 28 28" fill="none"><g opacity="0.4"><path d="M18.8955 11.7969C19.8976 11.797 20.6363 12.0785 21.1484 12.5068C21.6603 12.935 22.0075 13.5618 22.1357 14.3682C22.1619 14.5345 22.1803 14.7439 22.1904 15.0117H21.6006L21.5518 14.3115C21.4996 13.5598 21.2035 12.9317 20.6738 12.5049C20.1616 12.0922 19.52 11.9395 18.8955 11.9395C18.2099 11.9395 17.5745 12.1172 17.0801 12.5547C16.5887 12.9897 16.3358 13.5937 16.2383 14.249L16.1016 15.167H16.1504L16.1777 15.8447C16.2082 16.5802 16.4325 17.1993 16.8184 17.6748C17.2018 18.1472 17.7067 18.4306 18.2207 18.5654C19.0633 18.7864 20.053 18.6283 20.7285 18.0996H21.165C20.6722 18.4381 19.9587 18.7002 18.9688 18.7002C17.9545 18.7002 17.1223 18.4211 16.5527 17.9092C15.9977 17.4102 15.5957 16.6034 15.5957 15.3379C15.5958 14.0694 15.9777 13.2052 16.5264 12.6592C17.0778 12.1105 17.8844 11.7969 18.8955 11.7969ZM10.2031 9.31543L10.5215 9.3291C12.0508 9.44219 12.6473 10.1995 12.8008 10.8516C12.9871 11.644 12.6119 12.507 11.8975 12.8643L11.8232 12.9004C12.0737 12.602 12.2253 12.2323 12.2314 11.8115C12.2395 11.2552 11.9679 10.7442 11.4951 10.3984C11.036 10.0626 10.4196 9.90041 9.7041 9.90039H6.4502V13.7002H9.9375C10.0485 13.7002 10.1581 13.6909 10.2656 13.6787L10.2168 13.7041L11.9863 14.333C12.8381 14.6362 13.3737 15.6703 13.1514 16.7158C13.046 17.211 12.7676 17.6879 12.2686 18.0488C11.7661 18.412 10.9913 18.6914 9.84961 18.6914H5.7998V9.31543H10.2031ZM6.4502 18.1113H9.75586C10.45 18.1113 11.0548 17.9443 11.5059 17.6055C11.9661 17.2597 12.2385 16.7483 12.2256 16.1875C12.1985 15.0236 11.0832 14.2998 9.79297 14.2998H6.4502V18.1113Z" stroke="white" stroke-width="1.6"></path></g></svg> 