<?xml version="1.0" encoding="UTF-8"?> <svg xmlns="http://www.w3.org/2000/svg" width="28" height="28" viewBox="0 0 28 28" fill="none"><g opacity="0.4"><path d="M18.5498 11.9561C19.4734 11.9561 20.0629 12.1673 20.4531 12.4297C20.8445 12.6929 21.1301 13.0717 21.3389 13.5645C21.7836 14.6144 21.7999 15.9604 21.7998 17.1533V21.7998H20.2803V17.3535C20.2803 17.0913 20.3503 16.014 20.0635 15.0605C19.9118 14.5562 19.6358 13.9829 19.1182 13.5342C18.5801 13.0678 17.8866 12.8281 17.083 12.8281C16.6884 12.8282 16.3354 12.8915 16.0205 12.999C16.2399 12.6973 16.4781 12.4686 16.79 12.3027C17.1466 12.1132 17.6854 11.9561 18.5498 11.9561ZM13.7412 12.1387V16.3867L13.7588 16.3594C13.7548 16.3972 13.7491 16.4329 13.7461 16.4668L13.7412 16.5205V21.7998H12.3135V12.1387H13.7412ZM8.18848 12.1387V21.7998H6.75977V12.1387H8.18848ZM7.47461 6.2002C8.18583 6.20032 8.74902 6.77084 8.74902 7.45801C8.74901 8.14519 8.18586 8.71569 7.47461 8.71582C6.76329 8.71582 6.20021 8.14525 6.2002 7.45801C6.2002 6.77076 6.76328 6.2002 7.47461 6.2002Z" stroke="white" stroke-width="2.4"></path></g></svg> 