<?xml version="1.0" encoding="UTF-8"?> <svg xmlns="http://www.w3.org/2000/svg" width="28" height="28" viewBox="0 0 28 28" fill="none"><g opacity="0.4"><mask id="path-2-inside-1_72_33245" fill="white"><path d="M5.71043 17.5016C5.93552 18.0359 6.21688 18.5492 6.54045 19.0344C6.86401 19.5125 7.22978 19.9555 7.63775 20.3633C8.04572 20.7711 8.4959 21.1367 8.96717 21.4602C9.44549 21.7836 9.966 22.0648 10.4936 22.2898C11.0352 22.5219 11.6049 22.6977 12.1817 22.8172C12.7726 22.9367 13.3845 23 13.9965 23C14.6084 23 15.2134 22.9367 15.8113 22.8172C16.388 22.6977 16.9578 22.5219 17.5064 22.2898C18.041 22.0648 18.5545 21.7836 19.0328 21.4602C19.5111 21.1367 19.9543 20.7711 20.3623 20.3633C20.7702 19.9555 21.136 19.5055 21.4596 19.0344C21.7831 18.5563 22.0645 18.0359 22.2896 17.5016C22.5217 16.9602 22.6975 16.3906 22.8171 15.8141C22.9367 15.2234 23 14.6117 23 14C23 13.3883 22.9367 12.7766 22.8171 12.1859C22.6975 11.6094 22.5217 11.0398 22.2896 10.4914C22.0645 9.95703 21.7831 9.44375 21.4596 8.96562C21.136 8.4875 20.7702 8.04453 20.3623 7.63672C19.9543 7.22891 19.5041 6.85625 19.0328 6.53984C18.5545 6.21641 18.034 5.93516 17.5064 5.71016C16.9648 5.47813 16.3951 5.30234 15.8113 5.18281C15.2204 5.06328 14.6084 5 13.9965 5C13.3845 5 12.7726 5.06328 12.1817 5.18281C11.6049 5.30234 11.0352 5.47813 10.4936 5.71016C9.95897 5.93516 9.44549 6.21641 8.96717 6.53984C8.48886 6.86328 8.04572 7.22891 7.63775 7.63672C7.22978 8.04453 6.86401 8.49453 6.54045 8.96562C6.21688 9.44375 5.93552 9.95703 5.71043 10.4914C5.47831 11.0328 5.30246 11.6023 5.18288 12.1859C5.06331 12.7766 5 13.3883 5 14C5 14.6117 5.06331 15.2234 5.18288 15.8141C5.30246 16.3906 5.47831 16.9602 5.71043 17.5016ZM13.9965 21.6852C12.2028 21.6852 10.5639 21.0734 9.2626 20.0469C9.26964 20.0539 9.26964 20.0539 9.26964 20.0539C9.26964 20.0539 10.7468 16.8406 15.3048 15.2516C15.3189 15.2445 15.34 15.2375 15.354 15.2375C16.4373 18.05 16.8804 20.3984 16.993 21.0734C16.0785 21.4672 15.0586 21.6852 13.9965 21.6852ZM18.2943 20.3773C18.2169 19.9133 17.8089 17.6563 16.796 14.8859C19.279 14.4922 21.4314 15.1672 21.5862 15.2234C21.2485 17.3609 20.0176 19.2102 18.2943 20.3773ZM19.9332 9.11328C21.0094 10.4281 21.6635 12.1016 21.6846 13.9227C21.5721 13.9016 18.9695 13.3391 16.3318 13.6695C16.2755 13.5359 16.2192 13.4094 16.163 13.2758C16.0012 12.8961 15.8324 12.5305 15.6495 12.1578C18.6882 10.9203 19.9191 9.13438 19.9332 9.11328ZM13.9965 6.31484C15.9449 6.31484 17.7175 7.03906 19.075 8.23438C19.0539 8.2625 17.9637 9.92891 15.0586 11.0188C13.7433 8.60703 12.3013 6.6875 12.1817 6.53281C12.7655 6.39219 13.3705 6.31484 13.9965 6.31484ZM12.1465 6.53984C12.1465 6.53281 12.1536 6.53281 12.1465 6.53984C12.1536 6.53281 12.1536 6.53281 12.1465 6.53984ZM10.7186 7.04609C10.8242 7.17969 12.245 9.11328 13.5744 11.4758C9.88159 12.4531 6.68113 12.418 6.47714 12.4109C6.96952 10.0344 8.57327 8.05859 10.7186 7.04609ZM6.31536 13.7609C6.449 13.7609 10.2474 13.8523 14.2075 12.6641C14.4256 13.093 14.6366 13.5359 14.8335 13.9719C14.7351 14 14.6295 14.0281 14.5311 14.0633C10.381 15.4062 8.27784 19.1328 8.27784 19.1328C8.27784 19.1328 8.27784 19.1328 8.27784 19.1398C7.05393 17.7758 6.30832 15.9758 6.30832 14C6.30832 13.9156 6.31536 13.8383 6.31536 13.7609Z"></path></mask><path d="M5.71043 17.5016L7.92223 16.5699L7.91926 16.5629L7.91625 16.5558L5.71043 17.5016ZM6.54045 19.0344L4.54376 20.366L4.54826 20.3728L4.55281 20.3795L6.54045 19.0344ZM8.96717 21.4602L7.60912 23.439L7.61594 23.4436L7.62279 23.4483L8.96717 21.4602ZM10.4936 22.2898L11.4386 20.0838L11.4351 20.0822L10.4936 22.2898ZM12.1817 22.8172L11.6947 25.1673L11.7058 25.1695L12.1817 22.8172ZM15.8113 22.8172L16.2818 25.1706L16.29 25.169L16.2983 25.1673L15.8113 22.8172ZM17.5064 22.2898L16.5754 20.0778L16.5716 20.0794L17.5064 22.2898ZM21.4596 19.0344L23.4379 20.3932L23.4426 20.3863L23.4472 20.3795L21.4596 19.0344ZM22.2896 17.5016L20.0838 16.5558L20.0807 16.5629L20.0778 16.5699L22.2896 17.5016ZM22.8171 15.8141L25.1671 16.3015L25.1694 16.2903L22.8171 15.8141ZM22.8171 12.1859L25.1694 11.7097L25.1671 11.6986L22.8171 12.1859ZM22.2896 10.4914L20.0778 11.4231L20.0794 11.4269L22.2896 10.4914ZM19.0328 6.53984L17.6884 8.52798L17.6951 8.53242L19.0328 6.53984ZM17.5064 5.71016L16.5614 7.91624L16.5649 7.91776L17.5064 5.71016ZM15.8113 5.18281L16.2926 2.83158L16.2871 2.83047L15.8113 5.18281ZM12.1817 5.18281L11.7058 2.83044L11.6947 2.83275L12.1817 5.18281ZM10.4936 5.71016L11.4246 7.92221L11.4316 7.91925L11.4386 7.91624L10.4936 5.71016ZM6.54045 8.96562L4.56213 7.60685L4.55745 7.61367L4.55281 7.62052L6.54045 8.96562ZM5.71043 10.4914L7.91625 11.4371L7.91926 11.4301L7.92223 11.4231L5.71043 10.4914ZM5.18288 12.1859L2.83173 11.7042L2.83061 11.7097L5.18288 12.1859ZM5.18288 15.8141L2.83058 16.2903L2.83289 16.3014L5.18288 15.8141ZM9.2626 20.0469L10.7491 18.1626L7.56588 21.7443L9.2626 20.0469ZM9.26964 20.0539L6.94152 19.4709L11.4503 21.0563L9.26964 20.0539ZM15.3048 15.2516L16.0949 17.5178L16.2402 17.4671L16.3778 17.3984L15.3048 15.2516ZM15.354 15.2375L17.5937 14.3749L17.0015 12.8375H15.354V15.2375ZM16.993 21.0734L17.9422 23.2778L19.6696 22.5339L19.3603 20.6787L16.993 21.0734ZM18.2943 20.3773L15.9269 20.7721L16.5423 24.4626L19.6401 22.3645L18.2943 20.3773ZM16.796 14.8859L16.4201 12.5156L13.5409 12.9721L14.542 15.7101L16.796 14.8859ZM21.5862 15.2234L23.9568 15.5979L24.2655 13.6437L22.4061 12.9678L21.5862 15.2234ZM19.9332 9.11328L21.7904 7.59315L19.7361 5.08332L17.9365 7.78164L19.9332 9.11328ZM21.6846 13.9227L21.2425 16.2816L24.1184 16.8206L24.0845 13.8948L21.6846 13.9227ZM16.3318 13.6695L14.12 14.6012L14.8258 16.277L16.6301 16.0509L16.3318 13.6695ZM16.163 13.2758L18.3748 12.3441L18.3709 12.335L16.163 13.2758ZM15.6495 12.1578L14.7443 9.93507L12.3614 10.9055L13.4949 13.2152L15.6495 12.1578ZM19.075 8.23438L20.9948 9.67474L22.3266 7.89962L20.661 6.4331L19.075 8.23438ZM15.0586 11.0188L12.9516 12.1679L13.9498 13.9981L15.9016 13.2658L15.0586 11.0188ZM12.1817 6.53281L11.6197 4.19954L8.01562 5.06766L10.2829 8.00064L12.1817 6.53281ZM12.1465 6.53984H9.74654V12.3324L13.8433 8.23723L12.1465 6.53984ZM10.7186 7.04609L12.6021 5.55859L11.4196 4.06141L9.69431 4.87567L10.7186 7.04609ZM13.5744 11.4758L14.1885 13.7959L17.1873 13.0022L15.666 10.2988L13.5744 11.4758ZM6.47714 12.4109L4.12705 11.924L3.54955 14.7115L6.39446 14.8095L6.47714 12.4109ZM6.31536 13.7609V11.3609H3.91536V13.7609H6.31536ZM14.2075 12.6641L16.3469 11.5764L15.4382 9.78906L13.5177 10.3653L14.2075 12.6641ZM14.8335 13.9719L15.4926 16.2796L18.1649 15.5164L17.0207 12.9837L14.8335 13.9719ZM14.5311 14.0633L15.27 16.3467L15.3042 16.3356L15.338 16.3236L14.5311 14.0633ZM8.27784 19.1328L6.18773 17.9532L5.87784 18.5023V19.1328H8.27784ZM8.27784 19.1398L6.4915 20.7427L10.6778 25.4084V19.1398H8.27784ZM5.71043 17.5016L3.49864 18.4332C3.7877 19.1195 4.14359 19.766 4.54376 20.366L6.54045 19.0344L8.53713 17.7027C8.29017 17.3324 8.08334 16.9524 7.92223 16.5699L5.71043 17.5016ZM6.54045 19.0344L4.55281 20.3795C4.96185 20.9839 5.42501 21.5449 5.94102 22.0607L7.63775 20.3633L9.33447 18.6659C9.03454 18.3661 8.76617 18.0411 8.52808 17.6893L6.54045 19.0344ZM7.63775 20.3633L5.94102 22.0607C6.46501 22.5845 7.03139 23.0425 7.60912 23.439L8.96717 21.4602L10.3252 19.4813C9.9604 19.231 9.62643 18.9577 9.33447 18.6659L7.63775 20.3633ZM8.96717 21.4602L7.62279 23.4483C8.2323 23.8604 8.88826 24.2144 9.55201 24.4974L10.4936 22.2898L11.4351 20.0822C11.0437 19.9153 10.6587 19.7068 10.3116 19.472L8.96717 21.4602ZM10.4936 22.2898L9.54846 24.4959C10.2453 24.7945 10.9693 25.0169 11.6947 25.1673L12.1817 22.8172L12.6687 20.4671C12.2406 20.3784 11.825 20.2493 11.4386 20.0838L10.4936 22.2898ZM12.1817 22.8172L11.7058 25.1695C12.4493 25.3199 13.2207 25.4 13.9965 25.4V23V20.6C13.5484 20.6 13.0958 20.5535 12.6576 20.4648L12.1817 22.8172ZM13.9965 23V25.4C14.775 25.4 15.5376 25.3194 16.2818 25.1706L15.8113 22.8172L15.3408 20.4638C14.8892 20.554 14.4419 20.6 13.9965 20.6V23ZM15.8113 22.8172L16.2983 25.1673C17.0247 25.0167 17.7447 24.7949 18.4413 24.5003L17.5064 22.2898L16.5716 20.0794C16.1709 20.2489 15.7514 20.3786 15.3242 20.4671L15.8113 22.8172ZM17.5064 22.2898L18.4375 24.5019C19.1233 24.2132 19.7747 23.8557 20.3772 23.4483L19.0328 21.4602L17.6884 19.472C17.3343 19.7115 16.9587 19.9165 16.5754 20.0778L17.5064 22.2898ZM19.0328 21.4602L20.3772 23.4483C20.9818 23.0394 21.543 22.5765 22.059 22.0607L20.3623 20.3633L18.6655 18.6659C18.3656 18.9657 18.0405 19.234 17.6884 19.472L19.0328 21.4602ZM20.3623 20.3633L22.059 22.0607C22.583 21.5369 23.0412 20.9707 23.4379 20.3932L21.4596 19.0344L19.4812 17.6756C19.2308 18.0402 18.9575 18.3741 18.6655 18.6659L20.3623 20.3633ZM21.4596 19.0344L23.4472 20.3795C23.86 19.7695 24.2161 19.1105 24.5014 18.4332L22.2896 17.5016L20.0778 16.5699C19.9129 16.9614 19.7062 17.343 19.4719 17.6893L21.4596 19.0344ZM22.2896 17.5016L24.4954 18.4473C24.7941 17.7506 25.0167 17.0267 25.1671 16.3014L22.8171 15.8141L20.4671 15.3267C20.3784 15.7545 20.2493 16.1698 20.0838 16.5558L22.2896 17.5016ZM22.8171 15.8141L25.1694 16.2903C25.3199 15.5469 25.4 14.7757 25.4 14H23H20.6C20.6 14.4477 20.5535 14.8999 20.4648 15.3378L22.8171 15.8141ZM23 14H25.4C25.4 13.2243 25.3199 12.4531 25.1694 11.7097L22.8171 12.1859L20.4648 12.6622C20.5535 13.1001 20.6 13.5523 20.6 14H23ZM22.8171 12.1859L25.1671 11.6986C25.0165 10.9723 24.7945 10.2524 24.4998 9.55596L22.2896 10.4914L20.0794 11.4269C20.2489 11.8273 20.3786 12.2465 20.4671 12.6733L22.8171 12.1859ZM22.2896 10.4914L24.5014 9.55976C24.2125 8.87404 23.8548 8.2228 23.4472 7.62052L21.4596 8.96562L19.4719 10.3107C19.7115 10.6647 19.9164 11.04 20.0778 11.4231L22.2896 10.4914ZM21.4596 8.96562L23.4472 7.62052C23.0381 7.01609 22.575 6.45514 22.059 5.93933L20.3623 7.63672L18.6655 9.33411C18.9655 9.63392 19.2338 9.95891 19.4719 10.3107L21.4596 8.96562ZM20.3623 7.63672L22.059 5.93933C21.5458 5.42639 20.9761 4.95382 20.3706 4.54727L19.0328 6.53984L17.6951 8.53242C18.0321 8.75868 18.3627 9.03142 18.6655 9.33411L20.3623 7.63672ZM19.0328 6.53984L20.3772 4.55172C19.7677 4.13956 19.1117 3.78564 18.448 3.50256L17.5064 5.71016L16.5649 7.91776C16.9563 8.08467 17.3413 8.29325 17.6884 8.52797L19.0328 6.53984ZM17.5064 5.71016L18.4515 3.50407C17.7538 3.20516 17.0281 2.98216 16.2926 2.83159L15.8113 5.18281L15.3299 7.53404C15.7621 7.62253 16.1758 7.75109 16.5614 7.91624L17.5064 5.71016ZM15.8113 5.18281L16.2871 2.83047C15.5436 2.68005 14.7723 2.6 13.9965 2.6V5V7.4C14.4446 7.4 14.8972 7.44651 15.3354 7.53516L15.8113 5.18281ZM13.9965 5V2.6C13.2207 2.6 12.4493 2.68005 11.7058 2.83047L12.1817 5.18281L12.6576 7.53516C13.0958 7.44651 13.5484 7.4 13.9965 7.4V5ZM12.1817 5.18281L11.6947 2.83275C10.9693 2.98308 10.2453 3.20553 9.54846 3.50407L10.4936 5.71016L11.4386 7.91624C11.825 7.75072 12.2406 7.62161 12.6687 7.53288L12.1817 5.18281ZM10.4936 5.71016L9.56252 3.4981C8.87666 3.78677 8.22525 4.14433 7.62279 4.55172L8.96717 6.53984L10.3116 8.52797C10.6657 8.28848 11.0413 8.08354 11.4246 7.92221L10.4936 5.71016ZM8.96717 6.53984L7.62279 4.55172C7.01818 4.96056 6.45704 5.42352 5.94102 5.93933L7.63775 7.63672L9.33447 9.33411C9.63441 9.03429 9.95955 8.766 10.3116 8.52797L8.96717 6.53984ZM7.63775 7.63672L5.94102 5.93933C5.41703 6.46312 4.95881 7.0293 4.56213 7.60685L6.54045 8.96562L8.51876 10.3244C8.76921 9.95976 9.04252 9.62594 9.33447 9.33411L7.63775 7.63672ZM6.54045 8.96562L4.55281 7.62052C4.14523 8.2228 3.78748 8.87404 3.49864 9.55976L5.71043 10.4914L7.92223 11.4231C8.08357 11.04 8.28854 10.6647 8.52808 10.3107L6.54045 8.96562ZM5.71043 10.4914L3.50462 9.54569C3.20554 10.2433 2.9824 10.9689 2.83173 11.7042L5.18288 12.1859L7.53404 12.6677C7.62253 12.2358 7.75109 11.8224 7.91625 11.4371L5.71043 10.4914ZM5.18288 12.1859L2.83061 11.7097C2.6801 12.4531 2.6 13.2243 2.6 14H5H7.4C7.4 13.5523 7.44651 13.1 7.53516 12.6622L5.18288 12.1859ZM5 14H2.6C2.6 14.7757 2.6801 15.5469 2.83061 16.2903L5.18288 15.8141L7.53516 15.3378C7.44651 14.9 7.4 14.4477 7.4 14H5ZM5.18288 15.8141L2.83289 16.3014C2.98332 17.0267 3.2059 17.7506 3.50462 18.4473L5.71043 17.5016L7.91625 16.5558C7.75072 16.1698 7.6216 15.7545 7.53287 15.3267L5.18288 15.8141ZM13.9965 21.6852V19.2852C12.7605 19.2852 11.6415 18.8666 10.7491 18.1626L9.2626 20.0469L7.77614 21.9311C9.48632 23.2803 11.6452 24.0852 13.9965 24.0852V21.6852ZM9.2626 20.0469L7.56588 21.7443C7.56939 21.7478 7.57109 21.7495 7.5719 21.7503C7.57232 21.7507 7.57244 21.7508 7.57241 21.7508C7.5724 21.7508 7.57236 21.7507 7.5723 21.7507C7.57226 21.7506 7.57214 21.7505 7.57199 21.7504C7.57192 21.7503 7.5715 21.7499 7.57097 21.7494C7.57082 21.7492 7.56998 21.7484 7.56891 21.7473C7.5686 21.747 7.56692 21.7453 7.5648 21.7431C7.56418 21.7425 7.56085 21.7392 7.55664 21.7349C7.55541 21.7336 7.54885 21.7269 7.54059 21.7184C7.53271 21.7101 7.51719 21.6937 7.50954 21.6855C6.94485 20.65 6.94159 19.4706 9.26964 20.0539C11.5977 20.6372 11.5944 19.4578 11.0297 18.4223C11.0221 18.4141 11.0066 18.3977 10.9987 18.3895C10.9904 18.3809 10.9839 18.3742 10.9826 18.3729C10.9784 18.3686 10.9751 18.3653 10.9745 18.3647C10.9723 18.3625 10.9707 18.3608 10.9704 18.3605C10.9693 18.3595 10.9685 18.3586 10.9683 18.3585C10.9678 18.3579 10.9673 18.3575 10.9673 18.3574C10.967 18.3571 10.9667 18.3569 10.9666 18.3568C10.9664 18.3566 10.9661 18.3562 10.9656 18.3558C10.9647 18.3548 10.9629 18.353 10.9593 18.3495L9.2626 20.0469ZM9.26964 20.0539C11.4503 21.0563 11.4498 21.0574 11.4493 21.0584C11.4492 21.0587 11.4487 21.0597 11.4484 21.0604C11.4478 21.0617 11.4472 21.0629 11.4467 21.0642C11.4455 21.0666 11.4445 21.0688 11.4435 21.0709C11.4416 21.075 11.44 21.0783 11.4387 21.081C11.4362 21.0863 11.4349 21.0888 11.435 21.0886C11.4352 21.0882 11.4408 21.077 11.4521 21.0562C11.4748 21.0144 11.5199 20.9346 11.5903 20.8252C11.7313 20.6059 11.9707 20.2722 12.3291 19.8898C13.0399 19.1314 14.2298 18.168 16.0949 17.5178L15.3048 15.2516L14.5147 12.9853C11.8218 13.9242 9.99411 15.3619 8.82682 16.6074C8.24618 17.227 7.83145 17.7959 7.55306 18.2288C7.4137 18.4455 7.30785 18.6291 7.2319 18.7693C7.19389 18.8394 7.16329 18.8988 7.13965 18.9463C7.12782 18.97 7.11773 18.9907 7.10931 19.0083C7.1051 19.0171 7.10131 19.0251 7.09793 19.0323C7.09624 19.0359 7.09465 19.0393 7.09316 19.0425C7.09242 19.0441 7.0917 19.0456 7.09101 19.0471C7.09066 19.0479 7.09016 19.049 7.08999 19.0493C7.0895 19.0504 7.08901 19.0515 9.26964 20.0539ZM15.3048 15.2516L16.3778 17.3984C16.257 17.4587 16.137 17.5053 16.0187 17.5408C15.9561 17.5596 15.8743 17.5811 15.777 17.599C15.686 17.6158 15.5382 17.6375 15.354 17.6375V15.2375V12.8375C14.7965 12.8375 14.3819 13.0298 14.2318 13.1048L15.3048 15.2516ZM15.354 15.2375L13.1144 16.1001C14.1211 18.7138 14.5298 20.8934 14.6256 21.4681L16.993 21.0734L19.3603 20.6787C19.231 19.9035 18.7535 17.3862 17.5937 14.3749L15.354 15.2375ZM16.993 21.0734L16.0438 18.8691C15.4279 19.1343 14.7309 19.2852 13.9965 19.2852V21.6852V24.0852C15.3864 24.0852 16.7292 23.8001 17.9422 23.2778L16.993 21.0734ZM18.2943 20.3773L20.6616 19.9826C20.5694 19.4297 20.1306 17.0172 19.0501 14.0618L16.796 14.8859L14.542 15.7101C15.4872 18.2953 15.8644 20.3968 15.9269 20.7721L18.2943 20.3773ZM16.796 14.8859L17.1719 17.2563C19.1079 16.9493 20.8269 17.5011 20.7663 17.479L21.5862 15.2234L22.4061 12.9678C22.0359 12.8333 19.4501 12.0351 16.4201 12.5156L16.796 14.8859ZM21.5862 15.2234L19.2156 14.849C18.9856 16.3051 18.1431 17.581 16.9484 18.3902L18.2943 20.3773L19.6401 22.3645C21.892 20.8393 23.5115 18.4168 23.9568 15.5979L21.5862 15.2234ZM19.9332 9.11328L18.076 10.6334C18.8215 11.5442 19.2703 12.6961 19.2848 13.9505L21.6846 13.9227L24.0845 13.8948C24.0568 11.5071 23.1973 9.31205 21.7904 7.59315L19.9332 9.11328ZM21.6846 13.9227L22.1268 11.5637C22.1623 11.5704 21.8962 11.5158 21.5691 11.4609C21.2266 11.4034 20.7567 11.3339 20.1999 11.2768C19.1018 11.1642 17.5958 11.0924 16.0334 11.2881L16.3318 13.6695L16.6301 16.0509C18.8438 15.7736 21.0931 16.2536 21.2425 16.2816L21.6846 13.9227ZM16.3318 13.6695L18.5436 12.7379C18.5102 12.6587 18.4775 12.5832 18.4501 12.5198C18.4213 12.4531 18.3977 12.3986 18.3747 12.3441L16.163 13.2758L13.9512 14.2074C13.9845 14.2866 14.0172 14.3621 14.0446 14.4256C14.0735 14.4922 14.097 14.5467 14.12 14.6012L16.3318 13.6695ZM16.163 13.2758L18.3709 12.335C18.1905 11.9116 18.0035 11.5069 17.804 11.1005L15.6495 12.1578L13.4949 13.2152C13.6612 13.554 13.8119 13.8806 13.955 14.2166L16.163 13.2758ZM15.6495 12.1578L16.5547 14.3806C20.1396 12.9206 21.7174 10.7635 21.9299 10.4449L19.9332 9.11328L17.9365 7.78164C18.1209 7.50521 17.2367 8.92001 14.7443 9.93507L15.6495 12.1578ZM13.9965 6.31484V8.71484C15.3362 8.71484 16.5507 9.2095 17.489 10.0357L19.075 8.23438L20.661 6.4331C18.8842 4.86862 16.5536 3.91484 13.9965 3.91484V6.31484ZM19.075 8.23438L17.1553 6.79401C17.1418 6.81206 16.9977 7.04762 16.5714 7.41915C16.1314 7.80262 15.3777 8.33572 14.2156 8.77168L15.0586 11.0188L15.9016 13.2658C17.6446 12.6119 18.8885 11.7669 19.7252 11.0377C20.1419 10.6745 20.4545 10.3428 20.676 10.0821C20.8889 9.83149 21.0628 9.58407 20.9948 9.67474L19.075 8.23438ZM15.0586 11.0188L17.1656 9.86959C15.7691 7.30907 14.2467 5.27991 14.0805 5.06498L12.1817 6.53281L10.2829 8.00064C10.2822 7.99973 10.2885 8.00788 10.3029 8.02707C10.3165 8.04502 10.3351 8.06991 10.3585 8.10146C10.4054 8.16454 10.47 8.25261 10.5498 8.3632C10.7093 8.58449 10.9273 8.89368 11.1818 9.2711C11.6929 10.0291 12.3397 11.046 12.9516 12.1679L15.0586 11.0188ZM12.1817 6.53281L12.7437 8.86608C13.1538 8.76729 13.5701 8.71484 13.9965 8.71484V6.31484V3.91484C13.1708 3.91484 12.3772 4.01708 11.6197 4.19954L12.1817 6.53281ZM12.1465 6.53984H14.5465C14.5465 6.93749 14.4459 7.38691 14.1825 7.80824C14.0551 8.01201 13.8686 8.24156 13.6025 8.44421C13.3868 8.60854 12.8814 8.93457 12.1492 8.93457C11.7462 8.93457 11.2364 8.83015 10.759 8.4908C10.2732 8.1455 9.99263 7.67858 9.85896 7.25101C9.62358 6.49809 9.83002 5.88592 9.90243 5.6929C10.0802 5.21911 10.3614 4.93087 10.4498 4.84246L12.1465 6.53984L13.8433 8.23723C13.9352 8.1453 14.2182 7.85443 14.3966 7.37887C14.4693 7.18498 14.6758 6.57215 14.4403 5.81878C14.3066 5.391 14.0259 4.92392 13.54 4.5785C13.0624 4.23905 12.5524 4.13457 12.1492 4.13457C11.4165 4.13457 10.9106 4.46082 10.6943 4.62559C10.4276 4.82868 10.2405 5.05889 10.1126 5.26353C9.84802 5.68663 9.74654 6.13868 9.74654 6.53984H12.1465ZM12.1465 6.53984L13.8433 8.23723C13.8554 8.22508 13.8324 8.24809 13.8445 8.236C13.8533 8.22723 13.8369 8.24364 13.8456 8.23492C13.8471 8.23338 13.8443 8.23623 13.8458 8.23468C13.8463 8.23424 13.8456 8.23489 13.846 8.23445C13.848 8.23253 13.8446 8.23592 13.8465 8.23402C13.8472 8.23325 13.8465 8.23398 13.8472 8.23328C13.8481 8.2324 13.8476 8.23295 13.8482 8.23229C13.8483 8.23224 13.8483 8.23218 13.8484 8.23214C13.8484 8.23212 13.8484 8.23205 13.8485 8.23204C13.8485 8.23198 13.8485 8.23203 13.8485 8.23198C13.8486 8.23193 13.8485 8.23202 13.8485 8.23197C13.8485 8.23196 13.8485 8.23198 13.8485 8.23197C13.8486 8.23194 13.8485 8.23199 13.8485 8.23196C13.8485 8.23196 13.8485 8.23196 13.8485 8.23196C13.8485 8.23196 13.8485 8.23196 13.8485 8.23196C13.8485 8.23196 13.8485 8.23196 13.8485 8.23196C13.8485 8.23196 13.8485 8.23196 13.8485 8.23196V8.23196C13.8485 8.23196 13.8485 8.23196 13.8485 8.23196C13.8485 8.23196 13.8485 8.23196 12.1518 6.53457C10.4551 4.83718 10.4551 4.83718 10.4551 4.83718C10.4551 4.83718 10.4551 4.83718 10.4551 4.83718C10.4551 4.83718 10.4551 4.83718 10.4551 4.83718C10.4551 4.83718 10.4551 4.83718 10.4551 4.83718C10.4551 4.83718 10.4551 4.83718 10.4551 4.83718C10.4551 4.83718 10.4551 4.83718 10.4551 4.83718C10.4551 4.83719 10.4551 4.83718 10.4551 4.83719C10.4551 4.83719 10.4551 4.83719 10.4551 4.83719C10.4551 4.83722 10.4551 4.83718 10.4551 4.8372C10.455 4.83724 10.4551 4.83718 10.4551 4.83721C10.455 4.83728 10.4551 4.83716 10.455 4.83723C10.455 4.83727 10.4551 4.83722 10.455 4.83726C10.4547 4.83761 10.4553 4.83701 10.4549 4.83737C10.4547 4.83758 10.455 4.83729 10.4548 4.83751C10.4522 4.84007 10.4566 4.83572 10.4538 4.8385C10.4529 4.83933 10.4539 4.83836 10.453 4.83924C10.4483 4.84398 10.4569 4.83536 10.4521 4.84015C10.4502 4.84206 10.452 4.84032 10.4498 4.84246L12.1465 6.53984L13.8433 8.23723C13.8554 8.22508 13.8324 8.24809 13.8445 8.236C13.8533 8.22723 13.8369 8.24364 13.8456 8.23492C13.8471 8.23338 13.8443 8.23623 13.8458 8.23468C13.8463 8.23424 13.8456 8.23489 13.846 8.23445C13.848 8.23253 13.8446 8.23592 13.8465 8.23402C13.8472 8.23325 13.8465 8.23398 13.8472 8.23328C13.8481 8.2324 13.8476 8.23295 13.8482 8.23229C13.8483 8.23224 13.8483 8.23218 13.8484 8.23214C13.8484 8.23212 13.8484 8.23205 13.8485 8.23204C13.8485 8.23198 13.8485 8.23203 13.8485 8.23198C13.8486 8.23193 13.8485 8.23202 13.8485 8.23197C13.8485 8.23196 13.8485 8.23198 13.8485 8.23197C13.8486 8.23194 13.8485 8.23199 13.8485 8.23196C13.8485 8.23196 13.8485 8.23196 13.8485 8.23196C13.8485 8.23196 13.8485 8.23196 13.8485 8.23196C13.8485 8.23196 13.8485 8.23196 13.8485 8.23196C13.8485 8.23196 13.8485 8.23196 13.8485 8.23196V8.23196C13.8485 8.23196 13.8485 8.23196 13.8485 8.23196C13.8485 8.23196 13.8485 8.23196 12.1518 6.53457C10.4551 4.83718 10.4551 4.83718 10.4551 4.83718C10.4551 4.83718 10.4551 4.83718 10.4551 4.83718C10.4551 4.83718 10.4551 4.83718 10.4551 4.83718C10.4551 4.83718 10.4551 4.83718 10.4551 4.83718C10.4551 4.83718 10.4551 4.83718 10.4551 4.83718C10.4551 4.83718 10.4551 4.83718 10.4551 4.83718C10.4551 4.83719 10.4551 4.83718 10.4551 4.83719C10.4551 4.83719 10.4551 4.83719 10.4551 4.83719C10.4551 4.83722 10.4551 4.83718 10.4551 4.8372C10.455 4.83724 10.4551 4.83718 10.4551 4.83721C10.455 4.83728 10.4551 4.83716 10.455 4.83723C10.455 4.83727 10.4551 4.83722 10.455 4.83726C10.4547 4.83761 10.4553 4.83701 10.4549 4.83737C10.4547 4.83758 10.455 4.83729 10.4548 4.83751C10.4522 4.84007 10.4566 4.83572 10.4538 4.8385C10.4529 4.83933 10.4539 4.83836 10.453 4.83924C10.4483 4.84398 10.4569 4.83536 10.4521 4.84015C10.4502 4.84206 10.452 4.84032 10.4498 4.84246L12.1465 6.53984ZM10.7186 7.04609L8.8352 8.5336C8.83102 8.52831 9.17256 8.98553 9.69565 9.76384C10.2061 10.5233 10.8577 11.5418 11.4829 12.6528L13.5744 11.4758L15.666 10.2988C14.2735 7.82414 12.7825 5.78701 12.6021 5.55859L10.7186 7.04609ZM13.5744 11.4758L12.9604 9.15566C11.2798 9.60044 9.6979 9.81766 8.50851 9.92161C7.31156 10.0262 6.55804 10.0123 6.55982 10.0124L6.47714 12.4109L6.39446 14.8095C6.74578 14.8216 10.197 14.8523 14.1885 13.7959L13.5744 11.4758ZM6.47714 12.4109L8.82723 12.8978C9.16276 11.2784 10.2618 9.91553 11.743 9.21652L10.7186 7.04609L9.69431 4.87567C6.8847 6.20165 4.77628 8.79038 4.12705 11.924L6.47714 12.4109ZM6.31536 13.7609V16.1609C6.30268 16.1609 6.62982 16.1669 7.10291 16.156C7.58206 16.1451 8.24402 16.1171 9.03215 16.0493C10.5982 15.9146 12.7111 15.6188 14.8973 14.9628L14.2075 12.6641L13.5177 10.3653C9.92908 11.4421 6.44879 11.3609 6.31536 11.3609V13.7609ZM14.2075 12.6641L12.0681 13.7517C12.2676 14.144 12.4627 14.5535 12.6464 14.96L14.8335 13.9719L17.0207 12.9837C16.8104 12.5184 16.5836 12.0419 16.3469 11.5764L14.2075 12.6641ZM14.8335 13.9719L14.1744 11.6641C14.1358 11.6752 13.918 11.7338 13.7241 11.803L14.5311 14.0633L15.338 16.3236C15.3257 16.328 15.3274 16.3268 15.3571 16.3181C15.3712 16.314 15.3877 16.3093 15.411 16.3027C15.4308 16.2971 15.4636 16.2879 15.4926 16.2796L14.8335 13.9719ZM14.5311 14.0633L13.7921 11.7799C11.2163 12.6134 9.32645 14.1663 8.10819 15.4487C7.49289 16.0963 7.02816 16.6966 6.71206 17.1434C6.55347 17.3676 6.4307 17.5554 6.34365 17.694C6.30008 17.7634 6.26532 17.8208 6.23937 17.8644C6.22639 17.8863 6.2156 17.9047 6.207 17.9196C6.2027 17.927 6.19894 17.9335 6.19573 17.9391C6.19413 17.942 6.19266 17.9445 6.19132 17.9469C6.19066 17.948 6.19003 17.9492 6.18943 17.9502C6.18913 17.9507 6.1887 17.9515 6.18856 17.9518C6.18814 17.9525 6.18773 17.9532 8.27784 19.1328C10.368 20.3124 10.3676 20.3131 10.3672 20.3138C10.3671 20.314 10.3667 20.3146 10.3665 20.3151C10.366 20.3159 10.3655 20.3167 10.3651 20.3174C10.3643 20.3188 10.3636 20.3201 10.363 20.3211C10.3619 20.3231 10.3612 20.3243 10.361 20.3246C10.3606 20.3253 10.3621 20.3226 10.3656 20.3168C10.3725 20.3053 10.3869 20.2812 10.409 20.2461C10.4532 20.1757 10.5271 20.0619 10.6305 19.9157C10.8385 19.6218 11.1589 19.2065 11.5882 18.7547C12.459 17.838 13.6958 16.8561 15.27 16.3467L14.5311 14.0633ZM8.27784 19.1328C5.87784 19.1328 5.87784 19.1328 5.87784 19.1328C5.87784 19.1328 5.87784 19.1328 5.87784 19.1328C5.87784 19.1328 5.87784 19.1328 5.87784 19.1328C5.87784 19.1328 5.87784 19.1328 5.87784 19.1328C5.87784 19.1328 5.87784 19.1328 5.87784 19.1328V19.1328V19.1328C5.87784 19.1328 5.87784 19.1328 5.87784 19.1328V19.1328V19.1328C5.87784 19.1328 5.87784 19.1328 5.87784 19.1328V19.1328V19.1328C5.87784 19.1328 5.87784 19.1328 5.87784 19.1328V19.1328C5.87784 19.1328 5.87784 19.1328 5.87784 19.1328V19.1328C5.87784 19.1328 5.87784 19.1328 5.87784 19.1328C5.87784 19.1328 5.87784 19.1328 5.87784 19.1328V19.1328C5.87784 19.1328 5.87784 19.1328 5.87784 19.1328C5.87784 19.1328 5.87784 19.1328 5.87784 19.1328C5.87784 19.1328 5.87784 19.1328 5.87784 19.1328C5.87784 19.1328 5.87784 19.1328 5.87784 19.1328C5.87784 19.1328 5.87784 19.1328 5.87784 19.1328V19.1328V19.1328V19.1328V19.1328C5.87784 19.1328 5.87784 19.1328 5.87784 19.1328C5.87784 19.1328 5.87784 19.1328 5.87784 19.1328C5.87784 19.1328 5.87784 19.1328 5.87784 19.1328C5.87784 19.1328 5.87784 19.1328 5.87784 19.1328C5.87784 19.1328 5.87784 19.1328 5.87784 19.1328V19.1328V19.1328C5.87784 19.1328 5.87784 19.1328 5.87784 19.1328C5.87784 19.1328 5.87784 19.1328 5.87784 19.1328V19.1329C5.87784 19.1329 5.87784 19.1329 5.87784 19.1329C5.87784 19.1329 5.87784 19.1329 5.87784 19.1329V19.1329C5.87784 19.1329 5.87784 19.1329 5.87784 19.1329V19.1329C5.87784 19.1329 5.87784 19.1329 5.87784 19.1329V19.1329C5.87784 19.1329 5.87784 19.1329 5.87784 19.1329V19.1329C5.87784 19.1329 5.87784 19.1329 5.87784 19.1329C5.87784 19.1329 5.87784 19.1329 5.87784 19.1329V19.1329C5.87784 19.1329 5.87784 19.1329 5.87784 19.1329C5.87784 19.1329 5.87784 19.1329 5.87784 19.1329C5.87784 19.1329 5.87784 19.1329 5.87784 19.1329V19.1329C5.87784 19.1329 5.87784 19.1329 5.87784 19.1329C5.87784 19.1329 5.87784 19.1329 5.87784 19.1329C5.87784 19.1329 5.87784 19.1329 5.87784 19.1329C5.87784 19.1329 5.87784 19.1329 5.87784 19.1329C5.87784 19.1329 5.87784 19.1329 5.87784 19.1329C5.87784 19.1329 5.87784 19.1329 5.87784 19.1329C5.87784 19.1329 5.87784 19.1329 5.87784 19.1329C5.87784 19.1329 5.87784 19.1329 5.87784 19.1329C5.87784 19.1329 5.87784 19.1329 5.87784 19.1329C5.87784 19.1329 5.87784 19.1329 5.87784 19.1329C5.87784 19.1329 5.87784 19.1329 5.87784 19.1329C5.87784 19.1329 5.87784 19.1329 5.87784 19.1329C5.87784 19.1329 5.87784 19.1329 5.87784 19.1329C5.87784 19.1329 5.87784 19.1329 5.87784 19.1329C5.87784 19.1329 5.87784 19.1329 5.87784 19.1329C5.87784 19.1329 5.87784 19.1329 5.87784 19.1329C5.87784 19.1329 5.87784 19.1329 5.87784 19.1329C5.87784 19.1329 5.87784 19.1329 5.87784 19.1329C5.87784 19.1329 5.87784 19.1329 5.87784 19.1329C5.87784 19.1329 5.87784 19.1329 5.87784 19.1329C5.87784 19.1329 5.87784 19.1329 5.87784 19.1329C5.87784 19.1329 5.87784 19.1329 5.87784 19.1329C5.87784 19.1329 5.87784 19.1329 5.87784 19.1329C5.87784 19.1329 5.87784 19.1329 5.87784 19.1329C5.87784 19.1329 5.87784 19.1329 5.87784 19.1329C5.87784 19.1329 5.87784 19.1329 5.87784 19.1329C5.87784 19.1329 5.87784 19.1329 5.87784 19.1329C5.87784 19.1329 5.87784 19.1329 5.87784 19.1329C5.87784 19.1329 5.87784 19.1329 5.87784 19.1329C5.87784 19.1329 5.87784 19.1329 5.87784 19.1329C5.87784 19.1329 5.87784 19.1329 5.87784 19.1329C5.87784 19.1329 5.87784 19.1329 5.87784 19.1329C5.87784 19.133 5.87784 19.133 5.87784 19.133C5.87784 19.133 5.87784 19.133 5.87784 19.133C5.87784 19.133 5.87784 19.133 5.87784 19.133C5.87784 19.133 5.87784 19.133 5.87784 19.133C5.87784 19.133 5.87784 19.133 5.87784 19.133C5.87784 19.133 5.87784 19.133 5.87784 19.133C5.87784 19.133 5.87784 19.133 5.87784 19.133C5.87784 19.133 5.87784 19.133 5.87784 19.133C5.87784 19.133 5.87784 19.133 5.87784 19.133C5.87784 19.133 5.87784 19.133 5.87784 19.133C5.87784 19.133 5.87784 19.133 5.87784 19.133C5.87784 19.133 5.87784 19.133 5.87784 19.133C5.87784 19.133 5.87784 19.133 5.87784 19.133C5.87784 19.133 5.87784 19.133 5.87784 19.133C5.87784 19.133 5.87784 19.133 5.87784 19.133C5.87784 19.133 5.87784 19.133 5.87784 19.133C5.87784 19.133 5.87784 19.133 5.87784 19.133C5.87784 19.133 5.87784 19.133 5.87784 19.133C5.87784 19.133 5.87784 19.133 5.87784 19.133C5.87784 19.133 5.87784 19.133 5.87784 19.133C5.87784 19.133 5.87784 19.133 5.87784 19.133C5.87784 19.133 5.87784 19.133 5.87784 19.133C5.87784 19.133 5.87784 19.133 5.87784 19.133C5.87784 19.133 5.87784 19.133 5.87784 19.133C5.87784 19.133 5.87784 19.133 5.87784 19.133C5.87784 19.133 5.87784 19.133 5.87784 19.133C5.87784 19.133 5.87784 19.133 5.87784 19.133C5.87784 19.133 5.87784 19.1331 5.87784 19.1331C5.87784 19.1331 5.87784 19.1331 5.87784 19.1331C5.87784 19.1331 5.87784 19.1331 5.87784 19.1331C5.87784 19.1331 5.87784 19.1331 5.87784 19.1331C5.87784 19.1331 5.87784 19.1331 5.87784 19.1331C5.87784 19.1331 5.87784 19.1331 5.87784 19.1331C5.87784 19.1331 5.87784 19.1331 5.87784 19.1331C5.87784 19.1331 5.87784 19.1331 5.87784 19.1331C5.87784 19.1331 5.87784 19.1331 5.87784 19.1331C5.87784 19.1331 5.87784 19.1331 5.87784 19.1331C5.87784 19.1331 5.87784 19.1331 5.87784 19.1331C5.87784 19.1331 5.87784 19.1331 5.87784 19.1331C5.87784 19.1331 5.87784 19.1331 5.87784 19.1331C5.87784 19.1331 5.87784 19.1331 5.87784 19.1331C5.87784 19.1331 5.87784 19.1331 5.87784 19.1331C5.87784 19.1331 5.87784 19.1331 5.87784 19.1331C5.87784 19.1331 5.87784 19.1331 5.87784 19.1331C5.87784 19.1331 5.87784 19.1331 5.87784 19.1331C5.87784 19.1331 5.87784 19.1331 5.87784 19.1331C5.87784 19.1331 5.87784 19.1331 5.87784 19.1331C5.87784 19.1331 5.87784 19.1331 5.87784 19.1332C5.87784 19.1332 5.87784 19.1332 5.87784 19.1332C5.87784 19.1332 5.87784 19.1332 5.87784 19.1332C5.87784 19.1332 5.87784 19.1332 5.87784 19.1332C5.87784 19.1332 5.87784 19.1332 5.87784 19.1332C5.87784 19.1332 5.87784 19.1332 5.87784 19.1332C5.87784 19.1332 5.87784 19.1332 5.87784 19.1332C5.87784 19.1332 5.87784 19.1332 5.87784 19.1332C5.87784 19.1332 5.87784 19.1332 5.87784 19.1332C5.87784 19.1332 5.87784 19.1332 5.87784 19.1332C5.87784 19.1332 5.87784 19.1332 5.87784 19.1332C5.87784 19.1332 5.87784 19.1332 5.87784 19.1332C5.87784 19.1332 5.87784 19.1332 5.87784 19.1332C5.87784 19.1332 5.87784 19.1332 5.87784 19.1332C5.87784 19.1332 5.87784 19.1332 5.87784 19.1332C5.87784 19.1332 5.87784 19.1332 5.87784 19.1332C5.87784 19.1332 5.87784 19.1332 5.87784 19.1332C5.87784 19.1332 5.87784 19.1332 5.87784 19.1333C5.87784 19.1333 5.87784 19.1333 5.87784 19.1333C5.87784 19.1333 5.87784 19.1333 5.87784 19.1333C5.87784 19.1333 5.87784 19.1333 5.87784 19.1333C5.87784 19.1333 5.87784 19.1333 5.87784 19.1333C5.87784 19.1333 5.87784 19.1333 5.87784 19.1333C5.87784 19.1333 5.87784 19.1333 5.87784 19.1333C5.87784 19.1333 5.87784 19.1333 5.87784 19.1333C5.87784 19.1333 5.87784 19.1333 5.87784 19.1333C5.87784 19.1333 5.87784 19.1333 5.87784 19.1333C5.87784 19.1333 5.87784 19.1333 5.87784 19.1333C5.87784 19.1333 5.87784 19.1333 5.87784 19.1333C5.87784 19.1333 5.87784 19.1333 5.87784 19.1333C5.87784 19.1333 5.87784 19.1333 5.87784 19.1333C5.87784 19.1333 5.87784 19.1333 5.87784 19.1333C5.87784 19.1334 5.87784 19.1334 5.87784 19.1334C5.87784 19.1334 5.87784 19.1334 5.87784 19.1334C5.87784 19.1334 5.87784 19.1334 5.87784 19.1334C5.87784 19.1334 5.87784 19.1334 5.87784 19.1334C5.87784 19.1334 5.87784 19.1334 5.87784 19.1334C5.87784 19.1334 5.87784 19.1334 5.87784 19.1334C5.87784 19.1334 5.87784 19.1334 5.87784 19.1334C5.87784 19.1334 5.87784 19.1334 5.87784 19.1334C5.87784 19.1334 5.87784 19.1334 5.87784 19.1334C5.87784 19.1334 5.87784 19.1334 5.87784 19.1334C5.87784 19.1334 5.87784 19.1334 5.87784 19.1334C5.87784 19.1334 5.87784 19.1334 5.87784 19.1334C5.87784 19.1334 5.87784 19.1334 5.87784 19.1335C5.87784 19.1335 5.87784 19.1335 5.87784 19.1335C5.87784 19.1335 5.87784 19.1335 5.87784 19.1335C5.87784 19.1335 5.87784 19.1335 5.87784 19.1335C5.87784 19.1335 5.87784 19.1335 5.87784 19.1335C5.87784 19.1335 5.87784 19.1335 5.87784 19.1335C5.87784 19.1335 5.87784 19.1335 5.87784 19.1335C5.87784 19.1335 5.87784 19.1335 5.87784 19.1335C5.87784 19.1335 5.87784 19.1335 5.87784 19.1335C5.87784 19.1335 5.87784 19.1335 5.87784 19.1335C5.87784 19.1335 5.87784 19.1335 5.87784 19.1335C5.87784 19.1335 5.87784 19.1335 5.87784 19.1335C5.87784 19.1335 5.87784 19.1336 5.87784 19.1336C5.87784 19.1336 5.87784 19.1336 5.87784 19.1336C5.87784 19.1336 5.87784 19.1336 5.87784 19.1336C5.87784 19.1336 5.87784 19.1336 5.87784 19.1336C5.87784 19.1336 5.87784 19.1336 5.87784 19.1336C5.87784 19.1336 5.87784 19.1336 5.87784 19.1336C5.87784 19.1336 5.87784 19.1336 5.87784 19.1336C5.87784 19.1336 5.87784 19.1336 5.87784 19.1336C5.87784 19.1336 5.87784 19.1336 5.87784 19.1336C5.87784 19.1336 5.87784 19.1336 5.87784 19.1336C5.87784 19.1336 5.87784 19.1336 5.87784 19.1337C5.87784 19.1337 5.87784 19.1337 5.87784 19.1337C5.87784 19.1337 5.87784 19.1337 5.87784 19.1337C5.87784 19.1337 5.87784 19.1337 5.87784 19.1337C5.87784 19.1337 5.87784 19.1337 5.87784 19.1337C5.87784 19.1337 5.87784 19.1337 5.87784 19.1337C5.87784 19.1337 5.87784 19.1337 5.87784 19.1337C5.87784 19.1337 5.87784 19.1337 5.87784 19.1337C5.87784 19.1337 5.87784 19.1337 5.87784 19.1337C5.87784 19.1337 5.87784 19.1337 5.87784 19.1337C5.87784 19.1337 5.87784 19.1338 5.87784 19.1338C5.87784 19.1338 5.87784 19.1338 5.87784 19.1338C5.87784 19.1338 5.87784 19.1338 5.87784 19.1338C5.87784 19.1338 5.87784 19.1338 5.87784 19.1338C5.87784 19.1338 5.87784 19.1338 5.87784 19.1338C5.87784 19.1338 5.87784 19.1338 5.87784 19.1338C5.87784 19.1338 5.87784 19.1338 5.87784 19.1338C5.87784 19.1338 5.87784 19.1338 5.87784 19.1338C5.87784 19.1338 5.87784 19.1338 5.87784 19.1338C5.87784 19.1338 5.87784 19.1339 5.87784 19.1339C5.87784 19.1339 5.87784 19.1339 5.87784 19.1339C5.87784 19.1339 5.87784 19.1339 5.87784 19.1339C5.87784 19.1339 5.87784 19.1339 5.87784 19.1339C5.87784 19.1339 5.87784 19.1339 5.87784 19.1339C5.87784 19.1339 5.87784 19.1339 5.87784 19.1339C5.87784 19.1339 5.87784 19.1339 5.87784 19.1339C5.87784 19.1339 5.87784 19.1339 5.87784 19.1339C5.87784 19.1339 5.87784 19.1339 5.87784 19.134C5.87784 19.134 5.87784 19.134 5.87784 19.134C5.87784 19.134 5.87784 19.134 5.87784 19.134C5.87784 19.134 5.87784 19.134 5.87784 19.134C5.87784 19.134 5.87784 19.134 5.87784 19.134C5.87784 19.134 5.87784 19.134 5.87784 19.134C5.87784 19.134 5.87784 19.134 5.87784 19.134C5.87784 19.134 5.87784 19.134 5.87784 19.134C5.87784 19.134 5.87784 19.134 5.87784 19.1341C5.87784 19.1341 5.87784 19.1341 5.87784 19.1341C5.87784 19.1341 5.87784 19.1341 5.87784 19.1341C5.87784 19.1341 5.87784 19.1341 5.87784 19.1341C5.87784 19.1341 5.87784 19.1341 5.87784 19.1341C5.87784 19.1341 5.87784 19.1341 5.87784 19.1341C5.87784 19.1341 5.87784 19.1341 5.87784 19.1341C5.87784 19.1341 5.87784 19.1341 5.87784 19.1341C5.87784 19.1341 5.87784 19.1342 5.87784 19.1342C5.87784 19.1342 5.87784 19.1342 5.87784 19.1342C5.87784 19.1342 5.87784 19.1342 5.87784 19.1342C5.87784 19.1342 5.87784 19.1342 5.87784 19.1342C5.87784 19.1342 5.87784 19.1342 5.87784 19.1342C5.87784 19.1342 5.87784 19.1342 5.87784 19.1342C5.87784 19.1342 5.87784 19.1342 5.87784 19.1342C5.87784 19.1342 5.87784 19.1343 5.87784 19.1343C5.87784 19.1343 5.87784 19.1343 5.87784 19.1343C5.87784 19.1343 5.87784 19.1343 5.87784 19.1343C5.87784 19.1343 5.87784 19.1343 5.87784 19.1343C5.87784 19.1343 5.87784 19.1343 5.87784 19.1343C5.87784 19.1343 5.87784 19.1343 5.87784 19.1343C5.87784 19.1343 5.87784 19.1343 5.87784 19.1343C5.87784 19.1343 5.87784 19.1344 5.87784 19.1344C5.87784 19.1344 5.87784 19.1344 5.87784 19.1344C5.87784 19.1344 5.87784 19.1344 5.87784 19.1344C5.87784 19.1344 5.87784 19.1344 5.87784 19.1344C5.87784 19.1344 5.87784 19.1344 5.87784 19.1344C5.87784 19.1344 5.87784 19.1344 5.87784 19.1344C5.87784 19.1344 5.87784 19.1344 5.87784 19.1344C5.87784 19.1345 5.87784 19.1345 5.87784 19.1345C5.87784 19.1345 5.87784 19.1345 5.87784 19.1345C5.87784 19.1345 5.87784 19.1345 5.87784 19.1345C5.87784 19.1345 5.87784 19.1345 5.87784 19.1345C5.87784 19.1345 5.87784 19.1345 5.87784 19.1345C5.87784 19.1345 5.87784 19.1345 5.87784 19.1345C5.87784 19.1346 5.87784 19.1346 5.87784 19.1346C5.87784 19.1346 5.87784 19.1346 5.87784 19.1346C5.87784 19.1346 5.87784 19.1346 5.87784 19.1346C5.87784 19.1346 5.87784 19.1346 5.87784 19.1346C5.87784 19.1346 5.87784 19.1346 5.87784 19.1346C5.87784 19.1346 5.87784 19.1346 5.87784 19.1346C5.87784 19.1347 5.87784 19.1347 5.87784 19.1347C5.87784 19.1347 5.87784 19.1347 5.87784 19.1347C5.87784 19.1347 5.87784 19.1347 5.87784 19.1347C5.87784 19.1347 5.87784 19.1347 5.87784 19.1347C5.87784 19.1347 5.87784 19.1347 5.87784 19.1347C5.87784 19.1347 5.87784 19.1347 5.87784 19.1347C5.87784 19.1348 5.87784 19.1348 5.87784 19.1348C5.87784 19.1348 5.87784 19.1348 5.87784 19.1348C5.87784 19.1348 5.87784 19.1348 5.87784 19.1348C5.87784 19.1348 5.87784 19.1348 5.87784 19.1348C5.87784 19.1348 5.87784 19.1348 5.87784 19.1348C5.87784 19.1348 5.87784 19.1348 5.87784 19.1349C5.87784 19.1349 5.87784 19.1349 5.87784 19.1349C5.87784 19.1349 5.87784 19.1349 5.87784 19.1349C5.87784 19.1349 5.87784 19.1349 5.87784 19.1349C5.87784 19.1349 5.87784 19.1349 5.87784 19.1349C5.87784 19.1349 5.87784 19.1349 5.87784 19.1349C5.87784 19.135 5.87784 19.135 5.87784 19.135C5.87784 19.135 5.87784 19.135 5.87784 19.135C5.87784 19.135 5.87784 19.135 5.87784 19.135C5.87784 19.135 5.87784 19.135 5.87784 19.135C5.87784 19.135 5.87784 19.135 5.87784 19.135C5.87784 19.135 5.87784 19.1351 5.87784 19.1351C5.87784 19.1351 5.87784 19.1351 5.87784 19.1351C5.87784 19.1351 5.87784 19.1351 5.87784 19.1351C5.87784 19.1351 5.87784 19.1351 5.87784 19.1351C5.87784 19.1351 5.87784 19.1351 5.87784 19.1351C5.87784 19.1351 5.87784 19.1351 5.87784 19.1352C5.87784 19.1352 5.87784 19.1352 5.87784 19.1352C5.87784 19.1352 5.87784 19.1352 5.87784 19.1352C5.87784 19.1352 5.87784 19.1352 5.87784 19.1352C5.87784 19.1352 5.87784 19.1352 5.87784 19.1352C5.87784 19.1352 5.87784 19.1353 5.87784 19.1353C5.87784 19.1353 5.87784 19.1353 5.87784 19.1353C5.87784 19.1353 5.87784 19.1353 5.87784 19.1353C5.87784 19.1353 5.87784 19.1353 5.87784 19.1353C5.87784 19.1353 5.87784 19.1353 5.87784 19.1353C5.87784 19.1353 5.87784 19.1354 5.87784 19.1354C5.87784 19.1354 5.87784 19.1354 5.87784 19.1354C5.87784 19.1354 5.87784 19.1354 5.87784 19.1354C5.87784 19.1354 5.87784 19.1354 5.87784 19.1354C5.87784 19.1354 5.87784 19.1354 5.87784 19.1354C5.87784 19.1355 5.87784 19.1355 5.87784 19.1355C5.87784 19.1355 5.87784 19.1355 5.87784 19.1355C5.87784 19.1355 5.87784 19.1355 5.87784 19.1355C5.87784 19.1355 5.87784 19.1355 5.87784 19.1355C5.87784 19.1355 5.87784 19.1355 5.87784 19.1356C5.87784 19.1356 5.87784 19.1356 5.87784 19.1356C5.87784 19.1356 5.87784 19.1356 5.87784 19.1356C5.87784 19.1356 5.87784 19.1356 5.87784 19.1356C5.87784 19.1356 5.87784 19.1356 5.87784 19.1356C5.87784 19.1356 5.87784 19.1357 5.87784 19.1357C5.87784 19.1357 5.87784 19.1357 5.87784 19.1357C5.87784 19.1357 5.87784 19.1357 5.87784 19.1357C5.87784 19.1357 5.87784 19.1357 5.87784 19.1357C5.87784 19.1357 5.87784 19.1357 5.87784 19.1358C5.87784 19.1358 5.87784 19.1358 5.87784 19.1358C5.87784 19.1358 5.87784 19.1358 5.87784 19.1358C5.87784 19.1358 5.87784 19.1358 5.87784 19.1358C5.87784 19.1358 5.87784 19.1358 5.87784 19.1358C5.87784 19.1359 5.87784 19.1359 5.87784 19.1359C5.87784 19.1359 5.87784 19.1359 5.87784 19.1359C5.87784 19.1359 5.87784 19.1359 5.87784 19.1359C5.87784 19.1359 5.87784 19.1359 5.87784 19.1359C5.87784 19.136 5.87784 19.136 5.87784 19.136C5.87784 19.136 5.87784 19.136 5.87784 19.136C5.87784 19.136 5.87784 19.136 5.87784 19.136C5.87784 19.136 5.87784 19.136 5.87784 19.136C5.87784 19.136 5.87784 19.1361 5.87784 19.1361C5.87784 19.1361 5.87784 19.1361 5.87784 19.1361C5.87784 19.1361 5.87784 19.1361 5.87784 19.1361C5.87784 19.1361 5.87784 19.1361 5.87784 19.1361C5.87784 19.1361 5.87784 19.1362 5.87784 19.1362C5.87784 19.1362 5.87784 19.1362 5.87784 19.1362C5.87784 19.1362 5.87784 19.1362 5.87784 19.1362C5.87784 19.1362 5.87784 19.1362 5.87784 19.1362C5.87784 19.1363 5.87784 19.1363 5.87784 19.1363C5.87784 19.1363 5.87784 19.1363 5.87784 19.1363C5.87784 19.1363 5.87784 19.1363 5.87784 19.1363C5.87784 19.1363 5.87784 19.1363 5.87784 19.1363C5.87784 19.1364 5.87784 19.1364 5.87784 19.1364C5.87784 19.1364 5.87784 19.1364 5.87784 19.1364C5.87784 19.1364 5.87784 19.1364 5.87784 19.1364C5.87784 19.1364 5.87784 19.1364 5.87784 19.1364C5.87784 19.1365 5.87784 19.1365 5.87784 19.1365C5.87784 19.1365 5.87784 19.1365 5.87784 19.1365C5.87784 19.1365 5.87784 19.1365 5.87784 19.1365C5.87784 19.1365 5.87784 19.1365 5.87784 19.1366C5.87784 19.1366 5.87784 19.1366 5.87784 19.1366C5.87784 19.1366 5.87784 19.1366 5.87784 19.1366C5.87784 19.1366 5.87784 19.1366 5.87784 19.1366C5.87784 19.1366 5.87784 19.1367 5.87784 19.1367C5.87784 19.1367 5.87784 19.1367 5.87784 19.1367C5.87784 19.1367 5.87784 19.1367 5.87784 19.1367C5.87784 19.1367 5.87784 19.1367 5.87784 19.1368C5.87784 19.1368 5.87784 19.1368 5.87784 19.1368C5.87784 19.1368 5.87784 19.1368 5.87784 19.1368C5.87784 19.1368 5.87784 19.1368 5.87784 19.1368C5.87784 19.1368 5.87784 19.1369 5.87784 19.1369C5.87784 19.1369 5.87784 19.1369 5.87784 19.1369C5.87784 19.1369 5.87784 19.1369 5.87784 19.1369C5.87784 19.1369 5.87784 19.1369 5.87784 19.1369C5.87784 19.137 5.87784 19.137 5.87784 19.137C5.87784 19.137 5.87784 19.137 5.87784 19.137C5.87784 19.137 5.87784 19.137 5.87784 19.137C5.87784 19.137 5.87784 19.1371 5.87784 19.1371C5.87784 19.1371 5.87784 19.1371 5.87784 19.1371C5.87784 19.1371 5.87784 19.1371 5.87784 19.1371C5.87784 19.1371 5.87784 19.1371 5.87784 19.1372C5.87784 19.1372 5.87784 19.1372 5.87784 19.1372C5.87784 19.1372 5.87784 19.1372 5.87784 19.1372C5.87784 19.1372 5.87784 19.1372 5.87784 19.1372C5.87784 19.1373 5.87784 19.1373 5.87784 19.1373C5.87784 19.1373 5.87784 19.1373 5.87784 19.1373C5.87784 19.1373 5.87784 19.1373 5.87784 19.1373C5.87784 19.1373 5.87784 19.1374 5.87784 19.1374C5.87784 19.1374 5.87784 19.1374 5.87784 19.1374C5.87784 19.1374 5.87784 19.1374 5.87784 19.1374C5.87784 19.1374 5.87784 19.1375 5.87784 19.1375C5.87784 19.1375 5.87784 19.1375 5.87784 19.1375C5.87784 19.1375 5.87784 19.1375 5.87784 19.1375C5.87784 19.1375 5.87784 19.1375 5.87784 19.1376C5.87784 19.1376 5.87784 19.1376 5.87784 19.1376C5.87784 19.1376 5.87784 19.1376 5.87784 19.1376C5.87784 19.1376 5.87784 19.1376 5.87784 19.1377C5.87784 19.1377 5.87784 19.1377 5.87784 19.1377C5.87784 19.1377 5.87784 19.1377 5.87784 19.1377C5.87784 19.1377 5.87784 19.1377 5.87784 19.1377C5.87784 19.1378 5.87784 19.1378 5.87784 19.1378C5.87784 19.1378 5.87784 19.1378 5.87784 19.1378C5.87784 19.1378 5.87784 19.1378 5.87784 19.1378C5.87784 19.1379 5.87784 19.1379 5.87784 19.1379C5.87784 19.1379 5.87784 19.1379 5.87784 19.1379C5.87784 19.1379 5.87784 19.1379 5.87784 19.1379C5.87784 19.138 5.87784 19.138 5.87784 19.138C5.87784 19.138 5.87784 19.138 5.87784 19.138C5.87784 19.138 5.87784 19.138 5.87784 19.138C5.87784 19.1381 5.87784 19.1381 5.87784 19.1381C5.87784 19.1381 5.87784 19.1381 5.87784 19.1381C5.87784 19.1381 5.87784 19.1381 5.87784 19.1381C5.87784 19.1382 5.87784 19.1382 5.87784 19.1382C5.87784 19.1382 5.87784 19.1382 5.87784 19.1382C5.87784 19.1382 5.87784 19.1382 5.87784 19.1383C5.87784 19.1383 5.87784 19.1383 5.87784 19.1383C5.87784 19.1383 5.87784 19.1383 5.87784 19.1383C5.87784 19.1383 5.87784 19.1383 5.87784 19.1384C5.87784 19.1384 5.87784 19.1384 5.87784 19.1384C5.87784 19.1384 5.87784 19.1384 5.87784 19.1384C5.87784 19.1384 5.87784 19.1385 5.87784 19.1385C5.87784 19.1385 5.87784 19.1385 5.87784 19.1385C5.87784 19.1385 5.87784 19.1385 5.87784 19.1385C5.87784 19.1385 5.87784 19.1386 5.87784 19.1386C5.87784 19.1386 5.87784 19.1386 5.87784 19.1386C5.87784 19.1386 5.87784 19.1386 5.87784 19.1386C5.87784 19.1387 5.87784 19.1387 5.87784 19.1387C5.87784 19.1387 5.87784 19.1387 5.87784 19.1387C5.87784 19.1387 5.87784 19.1387 5.87784 19.1388C5.87784 19.1388 5.87784 19.1388 5.87784 19.1388C5.87784 19.1388 5.87784 19.1388 5.87784 19.1388C5.87784 19.1388 5.87784 19.1389 5.87784 19.1389C5.87784 19.1389 5.87784 19.1389 5.87784 19.1389C5.87784 19.1389 5.87784 19.1389 5.87784 19.1389C5.87784 19.139 5.87784 19.139 5.87784 19.139C5.87784 19.139 5.87784 19.139 5.87784 19.139C5.87784 19.139 5.87784 19.139 5.87784 19.1391C5.87784 19.1391 5.87784 19.1391 5.87784 19.1391C5.87784 19.1391 5.87784 19.1391 5.87784 19.1391C5.87784 19.1391 5.87784 19.1392 5.87784 19.1392C5.87784 19.1392 5.87784 19.1392 5.87784 19.1392C5.87784 19.1392 5.87784 19.1392 5.87784 19.1392C5.87784 19.1393 5.87784 19.1393 5.87784 19.1393C5.87784 19.1393 5.87784 19.1393 5.87784 19.1393C5.87784 19.1393 5.87784 19.1393 5.87784 19.1394C5.87784 19.1394 5.87784 19.1394 5.87784 19.1394C5.87784 19.1394 5.87784 19.1394 5.87784 19.1394C5.87784 19.1395 5.87784 19.1395 5.87784 19.1395C5.87784 19.1395 5.87784 19.1395 5.87784 19.1395C5.87784 19.1395 5.87784 19.1395 5.87784 19.1396C5.87784 19.1396 5.87784 19.1396 5.87784 19.1396C5.87784 19.1396 5.87784 19.1396 5.87784 19.1396C5.87784 19.1397 5.87784 19.1397 5.87784 19.1397C5.87784 19.1397 5.87784 19.1397 5.87784 19.1397C5.87784 19.1397 5.87784 19.1397 5.87784 19.1398C5.87784 19.1398 5.87784 19.1398 5.87784 19.1398C5.87784 19.1398 5.87784 19.1398 5.87784 19.1398H8.27784H10.6778C10.6778 19.1398 10.6778 19.1398 10.6778 19.1398C10.6778 19.1398 10.6778 19.1398 10.6778 19.1398C10.6778 19.1397 10.6778 19.1397 10.6778 19.1397C10.6778 19.1397 10.6778 19.1397 10.6778 19.1397C10.6778 19.1397 10.6778 19.1397 10.6778 19.1396C10.6778 19.1396 10.6778 19.1396 10.6778 19.1396C10.6778 19.1396 10.6778 19.1396 10.6778 19.1396C10.6778 19.1395 10.6778 19.1395 10.6778 19.1395C10.6778 19.1395 10.6778 19.1395 10.6778 19.1395C10.6778 19.1395 10.6778 19.1395 10.6778 19.1394C10.6778 19.1394 10.6778 19.1394 10.6778 19.1394C10.6778 19.1394 10.6778 19.1394 10.6778 19.1394C10.6778 19.1393 10.6778 19.1393 10.6778 19.1393C10.6778 19.1393 10.6778 19.1393 10.6778 19.1393C10.6778 19.1393 10.6778 19.1393 10.6778 19.1392C10.6778 19.1392 10.6778 19.1392 10.6778 19.1392C10.6778 19.1392 10.6778 19.1392 10.6778 19.1392C10.6778 19.1392 10.6778 19.1391 10.6778 19.1391C10.6778 19.1391 10.6778 19.1391 10.6778 19.1391C10.6778 19.1391 10.6778 19.1391 10.6778 19.1391C10.6778 19.139 10.6778 19.139 10.6778 19.139C10.6778 19.139 10.6778 19.139 10.6778 19.139C10.6778 19.139 10.6778 19.139 10.6778 19.1389C10.6778 19.1389 10.6778 19.1389 10.6778 19.1389C10.6778 19.1389 10.6778 19.1389 10.6778 19.1389C10.6778 19.1389 10.6778 19.1388 10.6778 19.1388C10.6778 19.1388 10.6778 19.1388 10.6778 19.1388C10.6778 19.1388 10.6778 19.1388 10.6778 19.1388C10.6778 19.1387 10.6778 19.1387 10.6778 19.1387C10.6778 19.1387 10.6778 19.1387 10.6778 19.1387C10.6778 19.1387 10.6778 19.1387 10.6778 19.1386C10.6778 19.1386 10.6778 19.1386 10.6778 19.1386C10.6778 19.1386 10.6778 19.1386 10.6778 19.1386C10.6778 19.1386 10.6778 19.1385 10.6778 19.1385C10.6778 19.1385 10.6778 19.1385 10.6778 19.1385C10.6778 19.1385 10.6778 19.1385 10.6778 19.1385C10.6778 19.1385 10.6778 19.1384 10.6778 19.1384C10.6778 19.1384 10.6778 19.1384 10.6778 19.1384C10.6778 19.1384 10.6778 19.1384 10.6778 19.1384C10.6778 19.1383 10.6778 19.1383 10.6778 19.1383C10.6778 19.1383 10.6778 19.1383 10.6778 19.1383C10.6778 19.1383 10.6778 19.1383 10.6778 19.1383C10.6778 19.1382 10.6778 19.1382 10.6778 19.1382C10.6778 19.1382 10.6778 19.1382 10.6778 19.1382C10.6778 19.1382 10.6778 19.1382 10.6778 19.1381C10.6778 19.1381 10.6778 19.1381 10.6778 19.1381C10.6778 19.1381 10.6778 19.1381 10.6778 19.1381C10.6778 19.1381 10.6778 19.1381 10.6778 19.138C10.6778 19.138 10.6778 19.138 10.6778 19.138C10.6778 19.138 10.6778 19.138 10.6778 19.138C10.6778 19.138 10.6778 19.138 10.6778 19.1379C10.6778 19.1379 10.6778 19.1379 10.6778 19.1379C10.6778 19.1379 10.6778 19.1379 10.6778 19.1379C10.6778 19.1379 10.6778 19.1379 10.6778 19.1378C10.6778 19.1378 10.6778 19.1378 10.6778 19.1378C10.6778 19.1378 10.6778 19.1378 10.6778 19.1378C10.6778 19.1378 10.6778 19.1378 10.6778 19.1377C10.6778 19.1377 10.6778 19.1377 10.6778 19.1377C10.6778 19.1377 10.6778 19.1377 10.6778 19.1377C10.6778 19.1377 10.6778 19.1377 10.6778 19.1377C10.6778 19.1376 10.6778 19.1376 10.6778 19.1376C10.6778 19.1376 10.6778 19.1376 10.6778 19.1376C10.6778 19.1376 10.6778 19.1376 10.6778 19.1376C10.6778 19.1375 10.6778 19.1375 10.6778 19.1375C10.6778 19.1375 10.6778 19.1375 10.6778 19.1375C10.6778 19.1375 10.6778 19.1375 10.6778 19.1375C10.6778 19.1375 10.6778 19.1374 10.6778 19.1374C10.6778 19.1374 10.6778 19.1374 10.6778 19.1374C10.6778 19.1374 10.6778 19.1374 10.6778 19.1374C10.6778 19.1374 10.6778 19.1373 10.6778 19.1373C10.6778 19.1373 10.6778 19.1373 10.6778 19.1373C10.6778 19.1373 10.6778 19.1373 10.6778 19.1373C10.6778 19.1373 10.6778 19.1373 10.6778 19.1372C10.6778 19.1372 10.6778 19.1372 10.6778 19.1372C10.6778 19.1372 10.6778 19.1372 10.6778 19.1372C10.6778 19.1372 10.6778 19.1372 10.6778 19.1372C10.6778 19.1371 10.6778 19.1371 10.6778 19.1371C10.6778 19.1371 10.6778 19.1371 10.6778 19.1371C10.6778 19.1371 10.6778 19.1371 10.6778 19.1371C10.6778 19.1371 10.6778 19.137 10.6778 19.137C10.6778 19.137 10.6778 19.137 10.6778 19.137C10.6778 19.137 10.6778 19.137 10.6778 19.137C10.6778 19.137 10.6778 19.137 10.6778 19.1369C10.6778 19.1369 10.6778 19.1369 10.6778 19.1369C10.6778 19.1369 10.6778 19.1369 10.6778 19.1369C10.6778 19.1369 10.6778 19.1369 10.6778 19.1369C10.6778 19.1369 10.6778 19.1368 10.6778 19.1368C10.6778 19.1368 10.6778 19.1368 10.6778 19.1368C10.6778 19.1368 10.6778 19.1368 10.6778 19.1368C10.6778 19.1368 10.6778 19.1368 10.6778 19.1368C10.6778 19.1367 10.6778 19.1367 10.6778 19.1367C10.6778 19.1367 10.6778 19.1367 10.6778 19.1367C10.6778 19.1367 10.6778 19.1367 10.6778 19.1367C10.6778 19.1367 10.6778 19.1366 10.6778 19.1366C10.6778 19.1366 10.6778 19.1366 10.6778 19.1366C10.6778 19.1366 10.6778 19.1366 10.6778 19.1366C10.6778 19.1366 10.6778 19.1366 10.6778 19.1366C10.6778 19.1365 10.6778 19.1365 10.6778 19.1365C10.6778 19.1365 10.6778 19.1365 10.6778 19.1365C10.6778 19.1365 10.6778 19.1365 10.6778 19.1365C10.6778 19.1365 10.6778 19.1365 10.6778 19.1364C10.6778 19.1364 10.6778 19.1364 10.6778 19.1364C10.6778 19.1364 10.6778 19.1364 10.6778 19.1364C10.6778 19.1364 10.6778 19.1364 10.6778 19.1364C10.6778 19.1364 10.6778 19.1364 10.6778 19.1363C10.6778 19.1363 10.6778 19.1363 10.6778 19.1363C10.6778 19.1363 10.6778 19.1363 10.6778 19.1363C10.6778 19.1363 10.6778 19.1363 10.6778 19.1363C10.6778 19.1363 10.6778 19.1363 10.6778 19.1362C10.6778 19.1362 10.6778 19.1362 10.6778 19.1362C10.6778 19.1362 10.6778 19.1362 10.6778 19.1362C10.6778 19.1362 10.6778 19.1362 10.6778 19.1362C10.6778 19.1362 10.6778 19.1361 10.6778 19.1361C10.6778 19.1361 10.6778 19.1361 10.6778 19.1361C10.6778 19.1361 10.6778 19.1361 10.6778 19.1361C10.6778 19.1361 10.6778 19.1361 10.6778 19.1361C10.6778 19.1361 10.6778 19.136 10.6778 19.136C10.6778 19.136 10.6778 19.136 10.6778 19.136C10.6778 19.136 10.6778 19.136 10.6778 19.136C10.6778 19.136 10.6778 19.136 10.6778 19.136C10.6778 19.136 10.6778 19.136 10.6778 19.1359C10.6778 19.1359 10.6778 19.1359 10.6778 19.1359C10.6778 19.1359 10.6778 19.1359 10.6778 19.1359C10.6778 19.1359 10.6778 19.1359 10.6778 19.1359C10.6778 19.1359 10.6778 19.1359 10.6778 19.1358C10.6778 19.1358 10.6778 19.1358 10.6778 19.1358C10.6778 19.1358 10.6778 19.1358 10.6778 19.1358C10.6778 19.1358 10.6778 19.1358 10.6778 19.1358C10.6778 19.1358 10.6778 19.1358 10.6778 19.1358C10.6778 19.1357 10.6778 19.1357 10.6778 19.1357C10.6778 19.1357 10.6778 19.1357 10.6778 19.1357C10.6778 19.1357 10.6778 19.1357 10.6778 19.1357C10.6778 19.1357 10.6778 19.1357 10.6778 19.1357C10.6778 19.1357 10.6778 19.1356 10.6778 19.1356C10.6778 19.1356 10.6778 19.1356 10.6778 19.1356C10.6778 19.1356 10.6778 19.1356 10.6778 19.1356C10.6778 19.1356 10.6778 19.1356 10.6778 19.1356C10.6778 19.1356 10.6778 19.1356 10.6778 19.1356C10.6778 19.1355 10.6778 19.1355 10.6778 19.1355C10.6778 19.1355 10.6778 19.1355 10.6778 19.1355C10.6778 19.1355 10.6778 19.1355 10.6778 19.1355C10.6778 19.1355 10.6778 19.1355 10.6778 19.1355C10.6778 19.1355 10.6778 19.1355 10.6778 19.1354C10.6778 19.1354 10.6778 19.1354 10.6778 19.1354C10.6778 19.1354 10.6778 19.1354 10.6778 19.1354C10.6778 19.1354 10.6778 19.1354 10.6778 19.1354C10.6778 19.1354 10.6778 19.1354 10.6778 19.1354C10.6778 19.1354 10.6778 19.1353 10.6778 19.1353C10.6778 19.1353 10.6778 19.1353 10.6778 19.1353C10.6778 19.1353 10.6778 19.1353 10.6778 19.1353C10.6778 19.1353 10.6778 19.1353 10.6778 19.1353C10.6778 19.1353 10.6778 19.1353 10.6778 19.1353C10.6778 19.1353 10.6778 19.1352 10.6778 19.1352C10.6778 19.1352 10.6778 19.1352 10.6778 19.1352C10.6778 19.1352 10.6778 19.1352 10.6778 19.1352C10.6778 19.1352 10.6778 19.1352 10.6778 19.1352C10.6778 19.1352 10.6778 19.1352 10.6778 19.1352C10.6778 19.1351 10.6778 19.1351 10.6778 19.1351C10.6778 19.1351 10.6778 19.1351 10.6778 19.1351C10.6778 19.1351 10.6778 19.1351 10.6778 19.1351C10.6778 19.1351 10.6778 19.1351 10.6778 19.1351C10.6778 19.1351 10.6778 19.1351 10.6778 19.1351C10.6778 19.1351 10.6778 19.135 10.6778 19.135C10.6778 19.135 10.6778 19.135 10.6778 19.135C10.6778 19.135 10.6778 19.135 10.6778 19.135C10.6778 19.135 10.6778 19.135 10.6778 19.135C10.6778 19.135 10.6778 19.135 10.6778 19.135C10.6778 19.135 10.6778 19.135 10.6778 19.1349C10.6778 19.1349 10.6778 19.1349 10.6778 19.1349C10.6778 19.1349 10.6778 19.1349 10.6778 19.1349C10.6778 19.1349 10.6778 19.1349 10.6778 19.1349C10.6778 19.1349 10.6778 19.1349 10.6778 19.1349C10.6778 19.1349 10.6778 19.1349 10.6778 19.1349C10.6778 19.1348 10.6778 19.1348 10.6778 19.1348C10.6778 19.1348 10.6778 19.1348 10.6778 19.1348C10.6778 19.1348 10.6778 19.1348 10.6778 19.1348C10.6778 19.1348 10.6778 19.1348 10.6778 19.1348C10.6778 19.1348 10.6778 19.1348 10.6778 19.1348C10.6778 19.1348 10.6778 19.1348 10.6778 19.1347C10.6778 19.1347 10.6778 19.1347 10.6778 19.1347C10.6778 19.1347 10.6778 19.1347 10.6778 19.1347C10.6778 19.1347 10.6778 19.1347 10.6778 19.1347C10.6778 19.1347 10.6778 19.1347 10.6778 19.1347C10.6778 19.1347 10.6778 19.1347 10.6778 19.1347C10.6778 19.1347 10.6778 19.1347 10.6778 19.1346C10.6778 19.1346 10.6778 19.1346 10.6778 19.1346C10.6778 19.1346 10.6778 19.1346 10.6778 19.1346C10.6778 19.1346 10.6778 19.1346 10.6778 19.1346C10.6778 19.1346 10.6778 19.1346 10.6778 19.1346C10.6778 19.1346 10.6778 19.1346 10.6778 19.1346C10.6778 19.1346 10.6778 19.1346 10.6778 19.1345C10.6778 19.1345 10.6778 19.1345 10.6778 19.1345C10.6778 19.1345 10.6778 19.1345 10.6778 19.1345C10.6778 19.1345 10.6778 19.1345 10.6778 19.1345C10.6778 19.1345 10.6778 19.1345 10.6778 19.1345C10.6778 19.1345 10.6778 19.1345 10.6778 19.1345C10.6778 19.1345 10.6778 19.1345 10.6778 19.1344C10.6778 19.1344 10.6778 19.1344 10.6778 19.1344C10.6778 19.1344 10.6778 19.1344 10.6778 19.1344C10.6778 19.1344 10.6778 19.1344 10.6778 19.1344C10.6778 19.1344 10.6778 19.1344 10.6778 19.1344C10.6778 19.1344 10.6778 19.1344 10.6778 19.1344C10.6778 19.1344 10.6778 19.1344 10.6778 19.1344C10.6778 19.1344 10.6778 19.1343 10.6778 19.1343C10.6778 19.1343 10.6778 19.1343 10.6778 19.1343C10.6778 19.1343 10.6778 19.1343 10.6778 19.1343C10.6778 19.1343 10.6778 19.1343 10.6778 19.1343C10.6778 19.1343 10.6778 19.1343 10.6778 19.1343C10.6778 19.1343 10.6778 19.1343 10.6778 19.1343C10.6778 19.1343 10.6778 19.1343 10.6778 19.1343C10.6778 19.1343 10.6778 19.1342 10.6778 19.1342C10.6778 19.1342 10.6778 19.1342 10.6778 19.1342C10.6778 19.1342 10.6778 19.1342 10.6778 19.1342C10.6778 19.1342 10.6778 19.1342 10.6778 19.1342C10.6778 19.1342 10.6778 19.1342 10.6778 19.1342C10.6778 19.1342 10.6778 19.1342 10.6778 19.1342C10.6778 19.1342 10.6778 19.1342 10.6778 19.1342C10.6778 19.1342 10.6778 19.1341 10.6778 19.1341C10.6778 19.1341 10.6778 19.1341 10.6778 19.1341C10.6778 19.1341 10.6778 19.1341 10.6778 19.1341C10.6778 19.1341 10.6778 19.1341 10.6778 19.1341C10.6778 19.1341 10.6778 19.1341 10.6778 19.1341C10.6778 19.1341 10.6778 19.1341 10.6778 19.1341C10.6778 19.1341 10.6778 19.1341 10.6778 19.1341C10.6778 19.1341 10.6778 19.1341 10.6778 19.1341C10.6778 19.134 10.6778 19.134 10.6778 19.134C10.6778 19.134 10.6778 19.134 10.6778 19.134C10.6778 19.134 10.6778 19.134 10.6778 19.134C10.6778 19.134 10.6778 19.134 10.6778 19.134C10.6778 19.134 10.6778 19.134 10.6778 19.134C10.6778 19.134 10.6778 19.134 10.6778 19.134C10.6778 19.134 10.6778 19.134 10.6778 19.134C10.6778 19.134 10.6778 19.134 10.6778 19.134C10.6778 19.1339 10.6778 19.1339 10.6778 19.1339C10.6778 19.1339 10.6778 19.1339 10.6778 19.1339C10.6778 19.1339 10.6778 19.1339 10.6778 19.1339C10.6778 19.1339 10.6778 19.1339 10.6778 19.1339C10.6778 19.1339 10.6778 19.1339 10.6778 19.1339C10.6778 19.1339 10.6778 19.1339 10.6778 19.1339C10.6778 19.1339 10.6778 19.1339 10.6778 19.1339C10.6778 19.1339 10.6778 19.1339 10.6778 19.1339C10.6778 19.1339 10.6778 19.1338 10.6778 19.1338C10.6778 19.1338 10.6778 19.1338 10.6778 19.1338C10.6778 19.1338 10.6778 19.1338 10.6778 19.1338C10.6778 19.1338 10.6778 19.1338 10.6778 19.1338C10.6778 19.1338 10.6778 19.1338 10.6778 19.1338C10.6778 19.1338 10.6778 19.1338 10.6778 19.1338C10.6778 19.1338 10.6778 19.1338 10.6778 19.1338C10.6778 19.1338 10.6778 19.1338 10.6778 19.1338C10.6778 19.1338 10.6778 19.1338 10.6778 19.1338C10.6778 19.1338 10.6778 19.1337 10.6778 19.1337C10.6778 19.1337 10.6778 19.1337 10.6778 19.1337C10.6778 19.1337 10.6778 19.1337 10.6778 19.1337C10.6778 19.1337 10.6778 19.1337 10.6778 19.1337C10.6778 19.1337 10.6778 19.1337 10.6778 19.1337C10.6778 19.1337 10.6778 19.1337 10.6778 19.1337C10.6778 19.1337 10.6778 19.1337 10.6778 19.1337C10.6778 19.1337 10.6778 19.1337 10.6778 19.1337C10.6778 19.1337 10.6778 19.1337 10.6778 19.1337C10.6778 19.1337 10.6778 19.1337 10.6778 19.1337C10.6778 19.1336 10.6778 19.1336 10.6778 19.1336C10.6778 19.1336 10.6778 19.1336 10.6778 19.1336C10.6778 19.1336 10.6778 19.1336 10.6778 19.1336C10.6778 19.1336 10.6778 19.1336 10.6778 19.1336C10.6778 19.1336 10.6778 19.1336 10.6778 19.1336C10.6778 19.1336 10.6778 19.1336 10.6778 19.1336C10.6778 19.1336 10.6778 19.1336 10.6778 19.1336C10.6778 19.1336 10.6778 19.1336 10.6778 19.1336C10.6778 19.1336 10.6778 19.1336 10.6778 19.1336C10.6778 19.1336 10.6778 19.1336 10.6778 19.1336C10.6778 19.1336 10.6778 19.1335 10.6778 19.1335C10.6778 19.1335 10.6778 19.1335 10.6778 19.1335C10.6778 19.1335 10.6778 19.1335 10.6778 19.1335C10.6778 19.1335 10.6778 19.1335 10.6778 19.1335C10.6778 19.1335 10.6778 19.1335 10.6778 19.1335C10.6778 19.1335 10.6778 19.1335 10.6778 19.1335C10.6778 19.1335 10.6778 19.1335 10.6778 19.1335C10.6778 19.1335 10.6778 19.1335 10.6778 19.1335C10.6778 19.1335 10.6778 19.1335 10.6778 19.1335C10.6778 19.1335 10.6778 19.1335 10.6778 19.1335C10.6778 19.1335 10.6778 19.1335 10.6778 19.1335C10.6778 19.1335 10.6778 19.1335 10.6778 19.1335C10.6778 19.1334 10.6778 19.1334 10.6778 19.1334C10.6778 19.1334 10.6778 19.1334 10.6778 19.1334C10.6778 19.1334 10.6778 19.1334 10.6778 19.1334C10.6778 19.1334 10.6778 19.1334 10.6778 19.1334C10.6778 19.1334 10.6778 19.1334 10.6778 19.1334C10.6778 19.1334 10.6778 19.1334 10.6778 19.1334C10.6778 19.1334 10.6778 19.1334 10.6778 19.1334C10.6778 19.1334 10.6778 19.1334 10.6778 19.1334C10.6778 19.1334 10.6778 19.1334 10.6778 19.1334C10.6778 19.1334 10.6778 19.1334 10.6778 19.1334C10.6778 19.1334 10.6778 19.1334 10.6778 19.1334C10.6778 19.1334 10.6778 19.1334 10.6778 19.1334C10.6778 19.1334 10.6778 19.1334 10.6778 19.1333C10.6778 19.1333 10.6778 19.1333 10.6778 19.1333C10.6778 19.1333 10.6778 19.1333 10.6778 19.1333C10.6778 19.1333 10.6778 19.1333 10.6778 19.1333C10.6778 19.1333 10.6778 19.1333 10.6778 19.1333C10.6778 19.1333 10.6778 19.1333 10.6778 19.1333C10.6778 19.1333 10.6778 19.1333 10.6778 19.1333C10.6778 19.1333 10.6778 19.1333 10.6778 19.1333C10.6778 19.1333 10.6778 19.1333 10.6778 19.1333C10.6778 19.1333 10.6778 19.1333 10.6778 19.1333C10.6778 19.1333 10.6778 19.1333 10.6778 19.1333C10.6778 19.1333 10.6778 19.1333 10.6778 19.1333C10.6778 19.1333 10.6778 19.1333 10.6778 19.1333C10.6778 19.1333 10.6778 19.1333 10.6778 19.1333C10.6778 19.1333 10.6778 19.1333 10.6778 19.1333C10.6778 19.1332 10.6778 19.1332 10.6778 19.1332C10.6778 19.1332 10.6778 19.1332 10.6778 19.1332C10.6778 19.1332 10.6778 19.1332 10.6778 19.1332C10.6778 19.1332 10.6778 19.1332 10.6778 19.1332C10.6778 19.1332 10.6778 19.1332 10.6778 19.1332C10.6778 19.1332 10.6778 19.1332 10.6778 19.1332C10.6778 19.1332 10.6778 19.1332 10.6778 19.1332C10.6778 19.1332 10.6778 19.1332 10.6778 19.1332C10.6778 19.1332 10.6778 19.1332 10.6778 19.1332C10.6778 19.1332 10.6778 19.1332 10.6778 19.1332C10.6778 19.1332 10.6778 19.1332 10.6778 19.1332C10.6778 19.1332 10.6778 19.1332 10.6778 19.1332C10.6778 19.1332 10.6778 19.1332 10.6778 19.1332C10.6778 19.1332 10.6778 19.1332 10.6778 19.1332C10.6778 19.1332 10.6778 19.1332 10.6778 19.1332C10.6778 19.1332 10.6778 19.1332 10.6778 19.1332C10.6778 19.1332 10.6778 19.1332 10.6778 19.1332C10.6778 19.1331 10.6778 19.1331 10.6778 19.1331C10.6778 19.1331 10.6778 19.1331 10.6778 19.1331C10.6778 19.1331 10.6778 19.1331 10.6778 19.1331C10.6778 19.1331 10.6778 19.1331 10.6778 19.1331C10.6778 19.1331 10.6778 19.1331 10.6778 19.1331C10.6778 19.1331 10.6778 19.1331 10.6778 19.1331C10.6778 19.1331 10.6778 19.1331 10.6778 19.1331C10.6778 19.1331 10.6778 19.1331 10.6778 19.1331C10.6778 19.1331 10.6778 19.1331 10.6778 19.1331C10.6778 19.1331 10.6778 19.1331 10.6778 19.1331C10.6778 19.1331 10.6778 19.1331 10.6778 19.1331C10.6778 19.1331 10.6778 19.1331 10.6778 19.1331C10.6778 19.1331 10.6778 19.1331 10.6778 19.1331C10.6778 19.1331 10.6778 19.1331 10.6778 19.1331C10.6778 19.1331 10.6778 19.1331 10.6778 19.1331C10.6778 19.1331 10.6778 19.1331 10.6778 19.1331C10.6778 19.1331 10.6778 19.1331 10.6778 19.1331C10.6778 19.1331 10.6778 19.1331 10.6778 19.1331C10.6778 19.1331 10.6778 19.1331 10.6778 19.1331C10.6778 19.1331 10.6778 19.1331 10.6778 19.1331C10.6778 19.1331 10.6778 19.133 10.6778 19.133C10.6778 19.133 10.6778 19.133 10.6778 19.133C10.6778 19.133 10.6778 19.133 10.6778 19.133C10.6778 19.133 10.6778 19.133 10.6778 19.133C10.6778 19.133 10.6778 19.133 10.6778 19.133C10.6778 19.133 10.6778 19.133 10.6778 19.133C10.6778 19.133 10.6778 19.133 10.6778 19.133C10.6778 19.133 10.6778 19.133 10.6778 19.133C10.6778 19.133 10.6778 19.133 10.6778 19.133C10.6778 19.133 10.6778 19.133 10.6778 19.133C10.6778 19.133 10.6778 19.133 10.6778 19.133C10.6778 19.133 10.6778 19.133 10.6778 19.133C10.6778 19.133 10.6778 19.133 10.6778 19.133C10.6778 19.133 10.6778 19.133 10.6778 19.133C10.6778 19.133 10.6778 19.133 10.6778 19.133C10.6778 19.133 10.6778 19.133 10.6778 19.133C10.6778 19.133 10.6778 19.133 10.6778 19.133C10.6778 19.133 10.6778 19.133 10.6778 19.133C10.6778 19.133 10.6778 19.133 10.6778 19.133C10.6778 19.133 10.6778 19.133 10.6778 19.133C10.6778 19.133 10.6778 19.133 10.6778 19.133C10.6778 19.133 10.6778 19.133 10.6778 19.133C10.6778 19.133 10.6778 19.133 10.6778 19.133C10.6778 19.133 10.6778 19.133 10.6778 19.133C10.6778 19.133 10.6778 19.133 10.6778 19.133C10.6778 19.133 10.6778 19.133 10.6778 19.133C10.6778 19.133 10.6778 19.133 10.6778 19.133C10.6778 19.133 10.6778 19.133 10.6778 19.1329C10.6778 19.1329 10.6778 19.1329 10.6778 19.1329C10.6778 19.1329 10.6778 19.1329 10.6778 19.1329C10.6778 19.1329 10.6778 19.1329 10.6778 19.1329C10.6778 19.1329 10.6778 19.1329 10.6778 19.1329C10.6778 19.1329 10.6778 19.1329 10.6778 19.1329C10.6778 19.1329 10.6778 19.1329 10.6778 19.1329C10.6778 19.1329 10.6778 19.1329 10.6778 19.1329C10.6778 19.1329 10.6778 19.1329 10.6778 19.1329C10.6778 19.1329 10.6778 19.1329 10.6778 19.1329C10.6778 19.1329 10.6778 19.1329 10.6778 19.1329C10.6778 19.1329 10.6778 19.1329 10.6778 19.1329C10.6778 19.1329 10.6778 19.1329 10.6778 19.1329C10.6778 19.1329 10.6778 19.1329 10.6778 19.1329C10.6778 19.1329 10.6778 19.1329 10.6778 19.1329C10.6778 19.1329 10.6778 19.1329 10.6778 19.1329C10.6778 19.1329 10.6778 19.1329 10.6778 19.1329C10.6778 19.1329 10.6778 19.1329 10.6778 19.1329C10.6778 19.1329 10.6778 19.1329 10.6778 19.1329C10.6778 19.1329 10.6778 19.1329 10.6778 19.1329C10.6778 19.1329 10.6778 19.1329 10.6778 19.1329C10.6778 19.1329 10.6778 19.1329 10.6778 19.1329C10.6778 19.1329 10.6778 19.1329 10.6778 19.1329C10.6778 19.1329 10.6778 19.1329 10.6778 19.1329C10.6778 19.1329 10.6778 19.1329 10.6778 19.1329C10.6778 19.1329 10.6778 19.1329 10.6778 19.1329C10.6778 19.1329 10.6778 19.1329 10.6778 19.1329C10.6778 19.1329 10.6778 19.1329 10.6778 19.1329C10.6778 19.1329 10.6778 19.1329 10.6778 19.1329C10.6778 19.1329 10.6778 19.1329 10.6778 19.1329C10.6778 19.1329 10.6778 19.1329 10.6778 19.1329C10.6778 19.1329 10.6778 19.1329 10.6778 19.1329C10.6778 19.1329 10.6778 19.1329 10.6778 19.1329V19.1329C10.6778 19.1329 10.6778 19.1329 10.6778 19.1329C10.6778 19.1329 10.6778 19.1329 10.6778 19.1329C10.6778 19.1329 10.6778 19.1329 10.6778 19.1329V19.1329C10.6778 19.1329 10.6778 19.1329 10.6778 19.1329C10.6778 19.1329 10.6778 19.1329 10.6778 19.1329V19.1329C10.6778 19.1329 10.6778 19.1329 10.6778 19.1329V19.1329C10.6778 19.1329 10.6778 19.1329 10.6778 19.1329V19.1329C10.6778 19.1329 10.6778 19.1329 10.6778 19.1329V19.1329C10.6778 19.1329 10.6778 19.1329 10.6778 19.1329C10.6778 19.1329 10.6778 19.1329 10.6778 19.1329V19.1328C10.6778 19.1328 10.6778 19.1328 10.6778 19.1328C10.6778 19.1328 10.6778 19.1328 10.6778 19.1328V19.1328V19.1328C10.6778 19.1328 10.6778 19.1328 10.6778 19.1328C10.6778 19.1328 10.6778 19.1328 10.6778 19.1328C10.6778 19.1328 10.6778 19.1328 10.6778 19.1328C10.6778 19.1328 10.6778 19.1328 10.6778 19.1328C10.6778 19.1328 10.6778 19.1328 10.6778 19.1328V19.1328V19.1328V19.1328V19.1328C10.6778 19.1328 10.6778 19.1328 10.6778 19.1328C10.6778 19.1328 10.6778 19.1328 10.6778 19.1328C10.6778 19.1328 10.6778 19.1328 10.6778 19.1328C10.6778 19.1328 10.6778 19.1328 10.6778 19.1328C10.6778 19.1328 10.6778 19.1328 10.6778 19.1328V19.1328C10.6778 19.1328 10.6778 19.1328 10.6778 19.1328C10.6778 19.1328 10.6778 19.1328 10.6778 19.1328V19.1328C10.6778 19.1328 10.6778 19.1328 10.6778 19.1328V19.1328C10.6778 19.1328 10.6778 19.1328 10.6778 19.1328V19.1328V19.1328C10.6778 19.1328 10.6778 19.1328 10.6778 19.1328V19.1328V19.1328C10.6778 19.1328 10.6778 19.1328 10.6778 19.1328V19.1328V19.1328C10.6778 19.1328 10.6778 19.1328 10.6778 19.1328C10.6778 19.1328 10.6778 19.1328 10.6778 19.1328C10.6778 19.1328 10.6778 19.1328 10.6778 19.1328C10.6778 19.1328 10.6778 19.1328 10.6778 19.1328C10.6778 19.1328 10.6778 19.1328 8.27784 19.1328ZM8.27784 19.1398L10.0642 17.537C9.21857 16.5946 8.70832 15.3594 8.70832 14H6.30832H3.90832C3.90832 16.5921 4.88928 18.957 6.4915 20.7427L8.27784 19.1398ZM6.30832 14H8.70832C8.70832 14.0185 8.70751 14.0287 8.70947 13.9844C8.7102 13.9681 8.71171 13.935 8.71288 13.9004C8.71412 13.864 8.71536 13.8159 8.71536 13.7609H6.31536H3.91536C3.91536 13.7446 3.91572 13.7353 3.91564 13.7377C3.91549 13.742 3.91524 13.748 3.91421 13.7712C3.91266 13.8061 3.90832 13.8971 3.90832 14H6.30832Z" fill="white" mask="url(#path-2-inside-1_72_33245)"></path></g></svg> 