<?xml version="1.0" encoding="UTF-8"?> <svg xmlns="http://www.w3.org/2000/svg" width="28" height="28" viewBox="0 0 28 28" fill="none"><g opacity="0.4"><path d="M18.6008 8.2998C18.8183 8.29996 19.0309 8.36459 19.2116 8.48552C19.3924 8.60646 19.5333 8.77826 19.6164 8.97923C19.6996 9.18019 19.7213 9.4013 19.6788 9.6146C19.6364 9.82791 19.5316 10.0238 19.3778 10.1776C19.224 10.3314 19.0281 10.4362 18.8148 10.4786C18.6015 10.5211 18.3804 10.4994 18.1794 10.4162C17.9785 10.3331 17.8067 10.1922 17.6857 10.0114C17.5648 9.83066 17.5002 9.6181 17.5 9.40061C17.5 8.79371 17.9116 8.2998 18.6008 8.2998Z" fill="white"></path><rect x="5.8" y="5.8" width="16.4" height="16.4" rx="4.2" stroke="white" stroke-width="1.6"></rect><circle cx="14" cy="14" r="3.7" stroke="white" stroke-width="1.6"></circle></g></svg> 