<?xml version="1.0" encoding="UTF-8"?> <svg xmlns="http://www.w3.org/2000/svg" width="28" height="28" viewBox="0 0 28 28" fill="none"><path d="M14.3692 5.57852C15.29 5.56445 16.204 5.57177 17.1175 5.56445C17.1479 6.70689 17.6114 7.73514 18.3488 8.49677L18.3477 8.49564C19.1414 9.21058 20.1742 9.67408 21.3127 9.75283L21.3284 9.75395V12.5867C20.2529 12.5597 19.2415 12.3116 18.3297 11.8853L18.3758 11.9044C17.9348 11.6923 17.5619 11.4746 17.2075 11.2316L17.2368 11.2508C17.23 13.3033 17.2435 15.3559 17.2227 17.4011C17.1648 18.4435 16.8183 19.3941 16.2625 20.1878L16.2738 20.1703C15.3445 21.5012 13.8393 22.3748 12.1276 22.4265H12.1197C12.0505 22.4299 11.969 22.4316 11.8868 22.4316C10.9137 22.4316 10.0042 22.1605 9.22903 21.6896L9.25153 21.7026C7.84078 20.8538 6.86766 19.4014 6.68766 17.7122L6.68541 17.6891C6.67134 17.3376 6.66459 16.986 6.67866 16.6418C6.95428 13.9536 9.20653 11.874 11.9442 11.874C12.2519 11.874 12.5534 11.9005 12.8465 11.9505L12.815 11.946C12.829 12.9861 12.7868 14.0267 12.7868 15.0668C12.5489 14.9807 12.2744 14.9306 11.9881 14.9306C10.9373 14.9306 10.0435 15.6023 9.71278 16.54L9.70772 16.5568C9.63291 16.797 9.58959 17.0732 9.58959 17.359C9.58959 17.4748 9.59691 17.5896 9.61041 17.7021L9.60928 17.6886C9.79603 18.8395 10.7827 19.708 11.9723 19.708C12.0067 19.708 12.0404 19.7074 12.0742 19.7057H12.0691C12.892 19.681 13.6064 19.2383 14.0103 18.5841L14.0159 18.574C14.1661 18.3647 14.269 18.1116 14.3033 17.8365L14.3039 17.8286C14.3742 16.5703 14.3461 15.3193 14.3528 14.061C14.3596 11.2283 14.3461 8.40227 14.3669 5.57683L14.3692 5.57852Z" fill="white" fill-opacity="0.4"></path></svg> 