<?xml version="1.0" encoding="UTF-8"?> <svg xmlns="http://www.w3.org/2000/svg" width="32" height="32" viewBox="0 0 32 32" fill="none"><g clip-path="url(#clip0_17040_12520)"><path d="M9.9375 24.25V19.875M9.9375 11.125V6.75M7.75 8.9375H12.125M7.75 22.0625H12.125M17.375 7.625L15.8576 11.5703C15.6108 12.2118 15.4875 12.5326 15.2956 12.8024C15.1255 13.0416 14.9166 13.2505 14.6774 13.4206C14.4076 13.6125 14.0868 13.7358 13.4453 13.9826L9.5 15.5L13.4453 17.0174C14.0868 17.2642 14.4076 17.3875 14.6775 17.5794C14.9166 17.7495 15.1255 17.9584 15.2956 18.1976C15.4875 18.4674 15.6108 18.7882 15.8576 19.4297L17.375 23.375L18.8924 19.4297C19.1392 18.7882 19.2625 18.4674 19.4544 18.1976C19.6245 17.9584 19.8334 17.7495 20.0726 17.5794C20.3424 17.3875 20.6632 17.2642 21.3047 17.0174L25.25 15.5L21.3047 13.9826C20.6632 13.7358 20.3424 13.6125 20.0726 13.4206C19.8334 13.2505 19.6245 13.0416 19.4544 12.8025C19.2625 12.5326 19.1392 12.2118 18.8924 11.5703L17.375 7.625Z" stroke="#FED500" stroke-width="1.75" stroke-linecap="round" stroke-linejoin="round"></path></g><defs><clipPath id="clip0_17040_12520"><rect width="21" height="21" fill="white" transform="translate(6 5)"></rect></clipPath></defs></svg> 