<?xml version="1.0" encoding="UTF-8"?> <svg xmlns="http://www.w3.org/2000/svg" width="32" height="32" viewBox="0 0 32 32" fill="none"><path d="M16.4664 21.5328H16.4771M12.4132 26.3327H20.5196C21.7144 26.3327 22.3118 26.3327 22.7681 26.1002C23.1695 25.8956 23.4958 25.5693 23.7004 25.1679C23.9329 24.7116 23.9329 24.1142 23.9329 22.9195V8.41323C23.9329 7.21849 23.9329 6.62112 23.7004 6.16478C23.4958 5.76338 23.1695 5.43704 22.7681 5.23251C22.3118 5 21.7144 5 20.5196 5H12.4132C11.2185 5 10.6211 5 10.1648 5.23251C9.76338 5.43704 9.43704 5.76338 9.23251 6.16478C9 6.62112 9 7.21849 9 8.41323V22.9195C9 24.1142 9 24.7116 9.23251 25.1679C9.43704 25.5693 9.76338 25.8956 10.1648 26.1002C10.6211 26.3327 11.2185 26.3327 12.4132 26.3327ZM16.9998 21.5328C16.9998 21.8274 16.761 22.0661 16.4664 22.0661C16.1719 22.0661 15.9331 21.8274 15.9331 21.5328C15.9331 21.2383 16.1719 20.9995 16.4664 20.9995C16.761 20.9995 16.9998 21.2383 16.9998 21.5328Z" stroke="#FED500" stroke-width="2.13327" stroke-linecap="round" stroke-linejoin="round"></path></svg> 