<?xml version="1.0" encoding="UTF-8"?> <svg xmlns="http://www.w3.org/2000/svg" width="32" height="32" viewBox="0 0 32 32" fill="none"><path d="M18.7493 5.91602V7.25768C18.7493 7.7944 18.7493 8.06276 18.6494 8.26776C18.5616 8.44808 18.4213 8.59468 18.2488 8.68656C18.0528 8.79102 17.7961 8.79102 17.2827 8.79102H14.716C14.2026 8.79102 13.9459 8.79102 13.7499 8.68656C13.5774 8.59468 13.4371 8.44808 13.3493 8.26776C13.2493 8.06276 13.2493 7.7944 13.2493 7.25768V5.91602M11.5993 25.0827H20.3993C21.4261 25.0827 21.9395 25.0827 22.3317 24.8738C22.6766 24.69 22.9571 24.3968 23.1329 24.0362C23.3327 23.6262 23.3327 23.0894 23.3327 22.016V8.98268C23.3327 7.90925 23.3327 7.37253 23.1329 6.96253C22.9571 6.60189 22.6766 6.30868 22.3317 6.12492C21.9395 5.91602 21.4261 5.91602 20.3993 5.91602H11.5993C10.5726 5.91602 10.0592 5.91602 9.66703 6.12492C9.32207 6.30868 9.0416 6.60189 8.86584 6.96253C8.66602 7.37253 8.66602 7.90925 8.66602 8.98268V22.016C8.66602 23.0894 8.66602 23.6262 8.86584 24.0362C9.0416 24.3968 9.32207 24.69 9.66703 24.8738C10.0592 25.0827 10.5726 25.0827 11.5993 25.0827Z" stroke="#FED500" stroke-width="1.91667" stroke-linecap="round" stroke-linejoin="round"></path></svg> 