<?xml version="1.0" encoding="UTF-8"?> <svg xmlns="http://www.w3.org/2000/svg" width="32" height="32" viewBox="0 0 32 32" fill="none"><path d="M10 10L14.5 14.5M10 10H7L6 7L7 6L10 7V10ZM23.259 6.74101L20.6314 9.36863C20.2354 9.76465 20.0373 9.96265 19.9632 10.191C19.8979 10.3918 19.8979 10.6082 19.9632 10.809C20.0373 11.0373 20.2354 11.2354 20.6314 11.6314L20.8686 11.8686C21.2646 12.2646 21.4627 12.4627 21.691 12.5368C21.8918 12.6021 22.1082 12.6021 22.309 12.5368C22.5373 12.4627 22.7354 12.2646 23.1314 11.8686L25.5893 9.41072C25.854 10.0549 26 10.7604 26 11.5C26 14.5376 23.5376 17 20.5 17C20.1338 17 19.7759 16.9642 19.4298 16.8959C18.9436 16.8001 18.7005 16.7521 18.5532 16.7668C18.3965 16.7824 18.3193 16.8059 18.1805 16.8802C18.0499 16.9501 17.919 17.081 17.657 17.343L10.5 24.5C9.67157 25.3284 8.32843 25.3284 7.5 24.5C6.67157 23.6716 6.67157 22.3284 7.5 21.5L14.657 14.343C14.919 14.081 15.0499 13.9501 15.1198 13.8195C15.1941 13.6807 15.2176 13.6035 15.2332 13.4468C15.2479 13.2995 15.1999 13.0564 15.1041 12.5702C15.0358 12.2241 15 11.8662 15 11.5C15 8.46243 17.4624 6 20.5 6C21.5055 6 22.448 6.26982 23.259 6.74101ZM16.0001 18.9999L21.5 24.4999C22.3284 25.3283 23.6716 25.3283 24.5 24.4999C25.3284 23.6715 25.3284 22.3283 24.5 21.4999L19.9753 16.9753C19.655 16.945 19.3427 16.8872 19.0408 16.8043C18.6517 16.6975 18.2249 16.7751 17.9397 17.0603L16.0001 18.9999Z" stroke="#FED500" stroke-width="1.5" stroke-linecap="round" stroke-linejoin="round"></path></svg> 