<svg width="1310" height="100" viewBox="0 0 1310 100" fill="none" xmlns="http://www.w3.org/2000/svg">
<g filter="url(#filter0_i_2001_13116)">
<path d="M76.0117 0.188887C76.182 0.0660861 76.3866 0 76.5966 0H1233.4C1233.61 0 1233.82 0.0660838 1233.99 0.188884L1307.49 53.1889C1308.28 53.7565 1307.87 55 1306.9 55H3.09658C2.12603 55 1.72442 53.7565 2.51164 53.1889L76.0117 0.188887Z" fill="url(#paint0_linear_2001_13116)" fill-opacity="0.6"/>
</g>
<g filter="url(#filter1_i_2001_13116)">
<path d="M0 92C0 96.4183 3.58172 100 8 100H1302C1306.42 100 1310 96.4183 1310 92V59C1310 54.5817 1306.42 51 1302 51H7.99998C3.5817 51 0 54.5817 0 59V92Z" fill="#181818"/>
</g>
<defs>
<filter id="filter0_i_2001_13116" x="2.09375" y="-9" width="1305.81" height="64" filterUnits="userSpaceOnUse" color-interpolation-filters="sRGB">
<feFlood flood-opacity="0" result="BackgroundImageFix"/>
<feBlend mode="normal" in="SourceGraphic" in2="BackgroundImageFix" result="shape"/>
<feColorMatrix in="SourceAlpha" type="matrix" values="0 0 0 0 0 0 0 0 0 0 0 0 0 0 0 0 0 0 127 0" result="hardAlpha"/>
<feOffset dy="-9"/>
<feGaussianBlur stdDeviation="5"/>
<feComposite in2="hardAlpha" operator="arithmetic" k2="-1" k3="1"/>
<feColorMatrix type="matrix" values="0 0 0 0 0.194171 0 0 0 0 0.194171 0 0 0 0 0.194171 0 0 0 0.1 0"/>
<feBlend mode="normal" in2="shape" result="effect1_innerShadow_2001_13116"/>
</filter>
<filter id="filter1_i_2001_13116" x="0" y="45" width="1310" height="55" filterUnits="userSpaceOnUse" color-interpolation-filters="sRGB">
<feFlood flood-opacity="0" result="BackgroundImageFix"/>
<feBlend mode="normal" in="SourceGraphic" in2="BackgroundImageFix" result="shape"/>
<feColorMatrix in="SourceAlpha" type="matrix" values="0 0 0 0 0 0 0 0 0 0 0 0 0 0 0 0 0 0 127 0" result="hardAlpha"/>
<feOffset dy="-6"/>
<feGaussianBlur stdDeviation="7.15"/>
<feComposite in2="hardAlpha" operator="arithmetic" k2="-1" k3="1"/>
<feColorMatrix type="matrix" values="0 0 0 0 0.194171 0 0 0 0 0.194171 0 0 0 0 0.194171 0 0 0 0.3 0"/>
<feBlend mode="normal" in2="shape" result="effect1_innerShadow_2001_13116"/>
</filter>
<linearGradient id="paint0_linear_2001_13116" x1="655" y1="-4.5" x2="655" y2="40" gradientUnits="userSpaceOnUse">
<stop stop-color="#0C0C0C" stop-opacity="0"/>
<stop offset="1" stop-color="#181818"/>
</linearGradient>
</defs>
</svg>
